<svg width="30" height="28" viewBox="0 0 30 28" fill="none" xmlns="http://www.w3.org/2000/svg">
<path fill-rule="evenodd" clip-rule="evenodd" d="M7.2924 8.3604C7.398 8.304 7.5996 8.1696 7.7556 8.0472C8.1564 7.7364 8.5596 7.398 8.952 6.9516C9.4848 6.348 9.7308 5.976 9.9708 5.5836C10.0308 5.4852 10.0512 5.4516 10.0824 5.3964C10.2156 5.1744 10.1424 4.8864 9.9216 4.7532C9.6996 4.62 9.4104 4.692 9.2772 4.9152C9.2556 4.9512 9.2196 5.0124 9.15 5.1252C8.8668 5.58 8.5464 6.0312 8.0496 6.5448C7.47 7.1448 6.7308 7.5936 6.7308 7.5936C6.5244 7.7496 6.4848 8.0472 6.642 8.2524C6.7992 8.4588 7.0524 8.4864 7.2924 8.3604ZM13.2084 7.3356C13.2864 7.2576 13.6692 6.7908 13.9164 6.4224C14.9712 4.848 15.5196 3.3768 15.7992 1.8024C15.864 1.4316 15.9024 1.062 15.918 0.696C15.924 0.546 15.9264 0.5016 15.9216 0.4692C15.9216 0.21 15.7128 0 15.4536 0C15.1956 0 14.9844 0.21 14.9844 0.4692C14.9844 0.5172 14.9844 0.5364 14.9772 0.6972C14.9556 1.0692 14.91 1.4604 14.8284 1.8756C14.6964 2.562 14.5404 3.1668 14.2644 3.7992C14.0124 4.3764 13.8492 4.7748 13.35 5.5584C13.14 5.8896 12.822 6.366 12.4668 6.7416C12.3036 6.942 12.3396 7.236 12.54 7.4004C12.7344 7.5588 13.026 7.518 13.2084 7.3356ZM19.2192 26.2488H4.2192C3.96 26.2488 3.75 26.4576 3.75 26.718C3.75 26.9772 3.9588 27.1872 4.2192 27.1872H19.2192C19.4784 27.1872 19.6884 26.9772 19.6884 26.718C19.6872 26.4576 19.4772 26.2488 19.2192 26.2488ZM22.4076 15.9804C22.5036 14.6976 22.8132 13.7748 23.0916 13.0308C23.2104 12.7104 23.3232 12.5064 23.412 12.1908C23.4288 12.1224 23.4372 12.0528 23.4372 11.982C23.436 11.616 23.178 11.2488 22.3728 11.2488C20.2548 11.2488 16.1148 11.2488 16.1148 11.2488H7.3248C7.3248 11.2488 3.1824 11.2488 1.0644 11.2488C0.2544 11.2488 0 11.6196 0 11.9868C0 12.0552 0.0096 12.1236 0.0252 12.1896C0.1116 12.5052 0.228 12.7092 0.348 13.0296C0.6276 13.7736 0.9372 14.6964 1.032 15.9792C1.0776 16.6812 1.0836 17.2548 1.3296 18.3912C1.9644 21.2436 4.7916 24.342 10.4052 24.372H13.0356C18.6492 24.342 21.4728 21.2436 22.1088 18.3912C22.3572 17.2572 22.362 16.6824 22.4076 15.9804ZM21.8004 13.9656C21.624 14.6316 21.5256 15.1008 21.4476 16.2408C21.408 16.7772 21.396 17.2608 21.1728 18.2724C21.0936 18.6408 20.9064 19.1904 20.5764 19.7688C20.3652 20.1372 20.094 20.5104 19.7628 20.8788C19.2996 21.3936 18.6972 21.876 17.9892 22.272C16.7088 22.986 15.0744 23.436 12.846 23.436H10.5936C8.3664 23.436 6.7308 22.986 5.4504 22.272C4.7424 21.876 4.14 21.3936 3.6768 20.8788C3.3468 20.5104 3.0744 20.1372 2.8644 19.7688C2.5344 19.1904 2.3472 18.6408 2.2668 18.2724C2.0448 17.2596 2.0328 16.7772 1.9932 16.2408C1.914 15.0996 1.818 14.6316 1.6404 13.9656C1.5828 13.7508 1.4688 13.3716 1.3788 13.1184C1.2936 12.8508 1.1892 12.6264 1.1412 12.468C1.0848 12.2856 1.032 12.186 1.356 12.186C3.2568 12.186 7.8324 12.186 7.8324 12.186H15.6072C15.6072 12.186 20.1828 12.186 22.0848 12.186C22.4076 12.186 22.3536 12.2856 22.2984 12.468C22.2504 12.6252 22.1472 12.8508 22.0608 13.1184C21.972 13.3716 21.858 13.7508 21.8004 13.9656ZM29.292 13.9428C28.0344 12.7044 26.6172 13.194 25.0524 13.3632C24.9108 13.3776 24.5436 13.3884 24.5184 13.3896C24.5184 13.3896 24.4512 13.5492 24.3624 13.8204C24.2868 14.0484 24.198 14.3388 24.198 14.3388C24.4044 14.34 24.9888 14.3148 25.1856 14.2908C25.6716 14.2344 26.1384 14.1624 26.5116 14.1096C26.8116 14.0676 27.132 14.0616 27.3588 14.0652C27.6408 14.0688 27.9144 14.142 28.1088 14.2368C28.5444 14.448 28.9608 14.8104 29.046 15.618C29.1744 16.836 28.4064 17.8068 27.8004 18.3264C27.4392 18.6336 26.4084 19.3092 25.386 19.8012C24.51 20.2248 23.4396 20.6436 22.6704 20.8356C22.6704 20.8356 22.4784 21.2076 22.2888 21.4428C22.0044 21.7932 21.8868 21.936 21.8868 21.936C21.996 21.9228 22.0824 21.9108 22.3668 21.864C23.0832 21.7428 24.2124 21.3636 25.3716 20.844C25.9032 20.604 26.4924 20.2944 27.0624 19.956C27.3408 19.7904 28.1076 19.3212 28.512 18.9468C28.8588 18.63 29.142 18.2952 29.3184 18.0204C29.8224 17.244 30 16.5768 30 15.864C30 14.9976 29.664 14.3088 29.292 13.9428ZM15.5244 7.6716C15.3684 7.872 15.3924 8.1564 15.588 8.3268C15.7824 8.496 16.0824 8.4648 16.2516 8.2692C16.2516 8.2692 16.4928 8.022 16.6728 7.7436C16.944 7.326 17.2032 6.8988 17.4252 6.3468C17.5116 6.1332 17.5824 5.9448 17.6412 5.7744C17.7048 5.586 17.7252 5.5212 17.7936 5.2836C17.8656 5.034 17.7204 4.776 17.4708 4.704C17.2224 4.6332 16.9632 4.7772 16.8924 5.0268C16.8216 5.2764 16.8072 5.3196 16.77 5.43C16.5984 5.9484 16.2336 6.7992 15.768 7.38C15.6816 7.488 15.6048 7.566 15.5244 7.6716Z" fill="#7E869A"/>
</svg>
