<svg width="64" height="29" viewBox="0 0 64 29" fill="none" xmlns="http://www.w3.org/2000/svg">
<path d="M13.7109 22.6914L20.0391 0.5625H27.1289L17.3828 29H12.7539L13.7109 22.6914ZM7.94922 0.5625L14.2578 22.6914L15.2539 29H10.5664L0.878906 0.5625H7.94922ZM36.2695 0.5625V29H29.9219V0.5625H36.2695ZM52.6172 19.1172H45.4688V14.1758H52.6172C53.6719 14.1758 54.5182 14 55.1562 13.6484C55.8073 13.2969 56.2826 12.8151 56.582 12.2031C56.8945 11.5781 57.0508 10.875 57.0508 10.0938C57.0508 9.28646 56.8945 8.53776 56.582 7.84766C56.2826 7.14453 55.8073 6.57812 55.1562 6.14844C54.5182 5.71875 53.6719 5.50391 52.6172 5.50391H47.7734V29H41.4062V0.5625H52.6172C54.8828 0.5625 56.8229 0.972656 58.4375 1.79297C60.0651 2.61328 61.3086 3.73958 62.168 5.17188C63.0404 6.59115 63.4766 8.21875 63.4766 10.0547C63.4766 11.8906 63.0404 13.4857 62.168 14.8398C61.3086 16.194 60.0651 17.2487 58.4375 18.0039C56.8229 18.7461 54.8828 19.1172 52.6172 19.1172Z" fill="white"/>
</svg>
