<svg width="22" height="22" viewBox="0 0 22 22" fill="none" xmlns="http://www.w3.org/2000/svg">
<path d="M16.1765 0.851562C13.926 0.851562 11.9693 2.13533 11 4.00792C10.0307 2.13533 8.074 0.851562 5.82353 0.851562C2.61282 0.851562 0 3.46439 0 6.67509C0 7.11897 0.0621177 7.57968 0.199294 8.12191L0.340353 8.57615C2.19353 14.2107 10.252 20.7318 10.5949 21.0049L11 21.331L11.4051 21.0049C11.77 20.7111 20.3681 13.7604 21.6635 8.56321L21.8085 8.08697C21.9392 7.56674 22 7.11768 22 6.67509C22 3.46439 19.3872 0.851562 16.1765 0.851562ZM20.5622 7.73886L20.416 8.21768C19.3691 12.4184 12.7212 18.2173 11 19.6616C9.34094 18.26 3.07741 12.7549 1.57235 8.18015L1.44294 7.77121C1.34329 7.36874 1.29412 7.01027 1.29412 6.67509C1.29412 4.17744 3.32588 2.14568 5.82353 2.14568C8.32118 2.14568 10.3529 4.17874 10.3529 6.67509V7.00121H11.6471V6.67509C11.6471 4.17744 13.6788 2.14568 16.1765 2.14568C18.6741 2.14568 20.7059 4.17744 20.7059 6.67509C20.7059 7.00897 20.6567 7.35709 20.5622 7.73886Z" fill="white"/>
</svg>
