<svg width="30" height="24" viewBox="0 0 30 24" fill="none" xmlns="http://www.w3.org/2000/svg">
<path fill-rule="evenodd" clip-rule="evenodd" d="M1.4832 7.35608C1.578 6.58928 1.6608 5.81288 1.746 5.25608C1.7892 4.96928 1.8396 4.53248 2.0436 4.17008C2.1876 3.91448 2.3916 3.74768 2.7384 3.54968C3.084 3.35288 3.3252 3.22808 3.708 3.07568C4.0212 2.95088 4.4304 2.80688 5.076 2.62568C7.296 1.99808 10.6872 1.53608 15 1.53608C19.3092 1.53608 22.7064 1.99808 24.9252 2.62688C25.5684 2.80808 25.9764 2.95208 26.2884 3.07688C26.67 3.23048 26.9112 3.35648 27.2616 3.55208C27.612 3.74888 27.8136 3.91688 27.9576 4.17368C28.1616 4.53608 28.2108 4.97288 28.2552 5.26208C28.3392 5.81888 28.4232 6.59168 28.5168 7.35728C28.6488 8.43248 28.782 9.54488 28.8636 10.2325C29.2644 10.4677 29.6124 10.7257 29.9004 11.0077C29.7324 9.60008 29.3952 6.77048 29.2104 5.29328C29.1528 4.83728 29.0064 3.86168 28.5804 3.39608C27.1068 1.78688 21.9696 0.598877 15 0.598877C8.01 0.598877 2.8632 1.79528 1.4064 3.41168C0.9984 3.86648 0.8484 4.83248 0.7908 5.28368C0.6072 6.75848 0.2676 9.60008 0.0996 11.0101C0.3888 10.7305 0.7356 10.4749 1.1364 10.2397C1.218 9.55088 1.3512 8.43488 1.4832 7.35608ZM4.2192 22.1605H1.4064C1.1472 22.1605 0.9372 22.3705 0.9372 22.6297C0.9372 22.8889 1.1472 23.0989 1.4064 23.0989H4.2192C4.4784 23.0989 4.6884 22.8889 4.6884 22.6297C4.6884 22.3705 4.4772 22.1605 4.2192 22.1605ZM29.0628 13.9825V13.7221C29.0628 12.5077 27.9768 11.6449 26.076 11.0521L26.2212 9.66008C26.3292 8.63528 24.6876 7.61408 21.2892 7.25768C20.6568 7.19048 20.0772 7.15928 19.5552 7.15808C17.2728 7.15808 16.0548 7.74968 15.9672 8.58248L15.8208 9.97808C15.5484 9.97688 15.2808 9.97208 15.0012 9.97208C14.7216 9.97208 14.4552 9.97568 14.1816 9.97808L14.0328 8.58248C13.9464 7.74968 12.7272 7.15808 10.4472 7.15928C9.9228 7.15928 9.3444 7.19048 8.7096 7.25768C5.3112 7.61408 3.6696 8.63648 3.7776 9.66008L3.924 11.0521C2.0244 11.6437 0.9372 12.5077 0.9372 13.7221V13.9825C0.3792 14.3077 0 14.9065 0 15.5977V18.4105C0 19.4461 0.84 20.2849 1.8744 20.2849H28.1244C29.16 20.2849 29.9988 19.4461 29.9988 18.4105V15.5977C30 14.9065 29.622 14.3077 29.0628 13.9825ZM16.8588 9.06248C16.8744 8.91968 16.8804 8.72528 16.9872 8.61608C17.13 8.47208 17.412 8.37248 17.712 8.28848C18.4248 8.08808 19.6992 8.03408 21.192 8.19128C22.6812 8.34728 23.9064 8.66528 24.5664 9.00848C24.8448 9.15368 25.1016 9.30968 25.212 9.48008C25.296 9.60968 25.2636 9.80168 25.248 9.94568L25.1592 10.8037C23.0364 10.2985 20.1492 10.0525 16.7592 9.99128L16.8588 9.06248ZM4.7844 9.48008C4.8924 9.30968 5.148 9.15488 5.4252 9.00968C6.0792 8.66648 7.3152 8.34848 8.808 8.19128C10.2972 8.03528 11.5608 8.09048 12.2796 8.28848C12.582 8.37248 12.8664 8.47088 13.0092 8.61488C13.1196 8.72528 13.1268 8.91848 13.1412 9.06248L13.2396 9.99008C9.8508 10.0513 6.9624 10.2973 4.8408 10.8025L4.7508 9.94448C4.7352 9.80168 4.7016 9.61088 4.7844 9.48008ZM2.3004 12.8929C2.4768 12.7177 2.7636 12.5485 3.0588 12.3961C4.9104 11.4529 8.8104 10.9093 15 10.9093C21.1848 10.9093 25.0872 11.4529 26.9388 12.3961C27.2352 12.5473 27.5232 12.7165 27.7008 12.8929C27.9564 13.1473 28.1256 13.3489 28.1256 13.7221H1.8744C1.8744 13.3489 2.0436 13.1473 2.3004 12.8929ZM29.0628 18.4105C29.0628 18.9289 28.6428 19.3477 28.1256 19.3477H1.8744C1.356 19.3477 0.9372 18.9277 0.9372 18.4105V15.5977C0.9372 15.0793 1.3572 14.6605 1.8744 14.6605H28.1244C28.6428 14.6605 29.0616 15.0805 29.0616 15.5977V18.4105H29.0628ZM28.5936 22.1605H25.7808C25.5216 22.1605 25.3116 22.3705 25.3116 22.6297C25.3116 22.8889 25.5216 23.0989 25.7808 23.0989H28.5936C28.8528 23.0989 29.0628 22.8889 29.0628 22.6297C29.0628 22.3705 28.8528 22.1605 28.5936 22.1605Z" fill="#7E869A"/>
</svg>
