<svg width="33" height="15" viewBox="0 0 33 15" fill="none" xmlns="http://www.w3.org/2000/svg">
<path d="M7.35547 11.8457L10.5195 0.78125H14.0645L9.19141 15H6.87695L7.35547 11.8457ZM4.47461 0.78125L7.62891 11.8457L8.12695 15H5.7832L0.939453 0.78125H4.47461Z" fill="#7E869A"/>
<path d="M18.6348 0.78125V15H15.4609V0.78125H18.6348Z" fill="#7E869A"/>
<path d="M26.8086 10.0586H23.2344V7.58789H26.8086C27.3359 7.58789 27.7591 7.5 28.0781 7.32422C28.4036 7.14844 28.6413 6.90755 28.791 6.60156C28.9473 6.28906 29.0254 5.9375 29.0254 5.54688C29.0254 5.14323 28.9473 4.76888 28.791 4.42383C28.6413 4.07227 28.4036 3.78906 28.0781 3.57422C27.7591 3.35938 27.3359 3.25195 26.8086 3.25195H24.3867V15H21.2031V0.78125H26.8086C27.9414 0.78125 28.9115 0.986328 29.7188 1.39648C30.5326 1.80664 31.1543 2.36979 31.584 3.08594C32.0202 3.79557 32.2383 4.60938 32.2383 5.52734C32.2383 6.44531 32.0202 7.24284 31.584 7.91992C31.1543 8.59701 30.5326 9.12435 29.7188 9.50195C28.9115 9.87305 27.9414 10.0586 26.8086 10.0586Z" fill="#7E869A"/>
</svg>
