<svg width="57" height="27" viewBox="0 0 57 27" fill="none" xmlns="http://www.w3.org/2000/svg">
<path d="M9.94091 26.3606C9.09835 26.3606 8.43566 26.1949 7.95285 25.8636C7.4795 25.5323 7.14815 25.0826 6.95881 24.5146C6.76947 23.9371 6.6748 23.2744 6.6748 22.5265V18.4225C6.6748 17.6368 6.76947 16.9552 6.95881 16.3777C7.14815 15.8002 7.4795 15.3552 7.95285 15.0428C8.43566 14.7304 9.09835 14.5742 9.94091 14.5742C10.7361 14.5742 11.3562 14.7115 11.8012 14.986C12.2556 15.2511 12.5775 15.6345 12.7668 16.1363C12.9561 16.638 13.0508 17.2202 13.0508 17.8829V18.8486H11.0343V17.8545C11.0343 17.5327 11.0154 17.2392 10.9775 16.9741C10.9491 16.709 10.8592 16.5008 10.7077 16.3493C10.5657 16.1883 10.3149 16.1079 9.95511 16.1079C9.59537 16.1079 9.33029 16.1931 9.15989 16.3635C8.99895 16.5244 8.89481 16.7469 8.84748 17.0309C8.80014 17.3054 8.77647 17.6179 8.77647 17.9681V22.9667C8.77647 23.3832 8.80961 23.7288 8.87588 24.0033C8.94215 24.2684 9.06048 24.472 9.23089 24.614C9.41076 24.7465 9.65217 24.8128 9.95511 24.8128C10.3054 24.8128 10.5515 24.7323 10.6935 24.5714C10.845 24.4009 10.9397 24.1785 10.9775 23.9039C11.0154 23.6294 11.0343 23.3217 11.0343 22.9809V21.9443H13.0508V22.8673C13.0508 23.5489 12.9609 24.1548 12.781 24.685C12.6011 25.2056 12.284 25.6175 11.8296 25.9204C11.3846 26.2139 10.7551 26.3606 9.94091 26.3606Z" fill="#222222"/>
<path d="M14.088 26.2044V14.702H16.1897V24.756H18.973V26.2044H14.088Z" fill="#222222"/>
<path d="M19.6958 26.2044V14.702H21.769V26.2044H19.6958Z" fill="#222222"/>
<path d="M23.0952 26.2044L23.294 14.702H25.4667L27.0997 22.6685L28.8038 14.702H30.9055L31.1185 26.2044H29.5564L29.386 18.2095L27.753 26.2044H26.4891L24.8277 18.1811L24.6715 26.2044H23.0952Z" fill="#222222"/>
<path d="M32.3911 26.2044V14.702H35.217C35.7282 14.702 36.1873 14.7494 36.5944 14.844C37.011 14.9387 37.366 15.0996 37.6595 15.3268C37.9624 15.5446 38.1943 15.8428 38.3553 16.2215C38.5162 16.6002 38.5967 17.0782 38.5967 17.6557C38.5967 18.1196 38.5304 18.5172 38.3979 18.8486C38.2748 19.1799 38.0902 19.445 37.8441 19.6438C37.5979 19.8331 37.2902 19.9609 36.921 20.0272C37.3755 20.1029 37.7494 20.2639 38.0429 20.51C38.3458 20.7467 38.5683 21.0591 38.7103 21.4472C38.8618 21.8354 38.9375 22.304 38.9375 22.8531C38.9375 23.4022 38.8665 23.8897 38.7245 24.3157C38.592 24.7323 38.3884 25.0826 38.1139 25.3666C37.8488 25.6411 37.5127 25.8494 37.1056 25.9914C36.708 26.1334 36.2394 26.2044 35.6998 26.2044H32.3911ZM34.4928 24.7276H35.288C35.9223 24.7276 36.353 24.5761 36.5802 24.2731C36.8074 23.9607 36.921 23.4827 36.921 22.8389C36.921 22.375 36.8642 22.0011 36.7506 21.7171C36.6465 21.4236 36.4666 21.2058 36.211 21.0638C35.9649 20.9218 35.6335 20.8508 35.217 20.8508H34.4928V24.7276ZM34.4928 19.4024H35.2028C35.6193 19.4024 35.9412 19.3408 36.1684 19.2178C36.3956 19.0947 36.5518 18.9054 36.637 18.6498C36.7317 18.3941 36.779 18.0723 36.779 17.6841C36.779 17.277 36.708 16.9646 36.566 16.7469C36.4335 16.5197 36.2299 16.3682 35.9554 16.2925C35.6809 16.2073 35.3306 16.1647 34.9046 16.1647H34.4928V19.4024Z" fill="#222222"/>
<path d="M39.9264 26.2044V14.702H41.9997V26.2044H39.9264Z" fill="#222222"/>
<path d="M43.3543 26.2044V14.702H44.8169L47.6144 21.2626V14.702H49.3469V26.2044H47.9552L45.1436 19.3314V26.2044H43.3543Z" fill="#222222"/>
<path d="M53.5491 26.3606C52.7918 26.3606 52.1906 26.1997 51.7457 25.8778C51.3007 25.5559 50.9788 25.1015 50.78 24.5146C50.5907 23.9181 50.496 23.2176 50.496 22.4129V18.5504C50.496 17.7267 50.5907 17.0167 50.78 16.4203C50.9694 15.8239 51.3007 15.3694 51.7741 15.057C52.2569 14.7352 52.9196 14.5742 53.7621 14.5742C54.5479 14.5742 55.1727 14.7068 55.6366 14.9718C56.1005 15.2369 56.4318 15.6203 56.6306 16.1221C56.8389 16.6144 56.943 17.2155 56.943 17.9255V18.522H54.9408V17.8687C54.9408 17.4995 54.9124 17.1824 54.8556 16.9173C54.8082 16.6522 54.7041 16.4534 54.5432 16.3209C54.3917 16.1789 54.1408 16.1079 53.7905 16.1079C53.4213 16.1079 53.1515 16.1978 52.9811 16.3777C52.8202 16.5576 52.716 16.7942 52.6687 17.0877C52.6308 17.3812 52.6119 17.7031 52.6119 18.0533V22.8673C52.6119 23.2649 52.645 23.6105 52.7113 23.9039C52.7776 24.1974 52.9006 24.4246 53.0805 24.5856C53.2604 24.737 53.516 24.8128 53.8473 24.8128C54.1881 24.8128 54.4485 24.7276 54.6284 24.5572C54.8082 24.3867 54.9313 24.1501 54.9976 23.8471C55.0733 23.5442 55.1112 23.1844 55.1112 22.7679V21.6887H53.8757V20.368H56.9998V26.2044H55.6508L55.4946 25.0684C55.3431 25.447 55.1112 25.7595 54.7988 26.0056C54.4958 26.2423 54.0793 26.3606 53.5491 26.3606Z" fill="#222222"/>
<path d="M6.8457 11.6302V0.127804H11.6739V1.60465H8.94737V4.91336H11.0916V6.37601H8.94737V10.1817H11.7023V11.6302H6.8457Z" fill="#222222"/>
<path d="M12.4937 11.6302V0.127804H14.5954V10.1817H17.3787V11.6302H12.4937Z" fill="#222222"/>
<path d="M18.0447 11.6302V0.127804H20.8706C21.3818 0.127804 21.8409 0.175139 22.248 0.26981C22.6646 0.36448 23.0196 0.525418 23.313 0.752626C23.616 0.970366 23.8479 1.26858 24.0089 1.64726C24.1698 2.02593 24.2503 2.50402 24.2503 3.0815C24.2503 3.54539 24.184 3.943 24.0515 4.27434C23.9284 4.60569 23.7438 4.87076 23.4976 5.06957C23.2515 5.25891 22.9438 5.38671 22.5746 5.45298C23.029 5.52872 23.403 5.68966 23.6965 5.9358C23.9994 6.17247 24.2219 6.48488 24.3639 6.87303C24.5153 7.26118 24.5911 7.72979 24.5911 8.27888C24.5911 8.82796 24.5201 9.31551 24.3781 9.74153C24.2455 10.1581 24.042 10.5084 23.7675 10.7924C23.5024 11.0669 23.1663 11.2752 22.7592 11.4172C22.3616 11.5592 21.893 11.6302 21.3534 11.6302H18.0447ZM20.1463 10.1533H20.9416C21.5758 10.1533 22.0066 10.0019 22.2338 9.69893C22.461 9.38651 22.5746 8.90843 22.5746 8.26468C22.5746 7.80079 22.5178 7.42685 22.4042 7.14284C22.3001 6.84936 22.1202 6.63162 21.8646 6.48962C21.6185 6.34761 21.2871 6.27661 20.8706 6.27661H20.1463V10.1533ZM20.1463 4.82816H20.8564C21.2729 4.82816 21.5948 4.76663 21.822 4.64356C22.0492 4.52049 22.2054 4.33115 22.2906 4.07554C22.3853 3.81993 22.4326 3.49805 22.4326 3.1099C22.4326 2.70282 22.3616 2.39041 22.2196 2.17267C22.0871 1.94547 21.8835 1.79399 21.609 1.71826C21.3344 1.63306 20.9842 1.59045 20.5581 1.59045H20.1463V4.82816Z" fill="#222222"/>
<path d="M25.5232 11.6302V0.127804H28.2781C29.0544 0.127804 29.7076 0.222475 30.2378 0.411815C30.7774 0.591687 31.1845 0.904098 31.459 1.34905C31.743 1.79399 31.885 2.39988 31.885 3.16671C31.885 3.63059 31.8424 4.04714 31.7572 4.41635C31.672 4.78556 31.5253 5.1027 31.317 5.36778C31.1182 5.62339 30.8389 5.8222 30.4792 5.9642L32.0838 11.6302H29.9822L28.5905 6.36181H27.6249V11.6302H25.5232ZM27.6249 5.04117H28.2781C28.6852 5.04117 29.0071 4.98437 29.2437 4.87076C29.4899 4.74769 29.665 4.55835 29.7692 4.30274C29.8733 4.03767 29.9254 3.70159 29.9254 3.29451C29.9254 2.71703 29.8165 2.28628 29.5987 2.00227C29.3905 1.70879 28.9881 1.56205 28.3917 1.56205H27.6249V5.04117Z" fill="#222222"/>
<path d="M36.1681 11.7864C35.3161 11.7864 34.6534 11.6302 34.1801 11.3178C33.7067 11.0054 33.3801 10.5604 33.2002 9.98293C33.0204 9.40545 32.9304 8.71436 32.9304 7.90966V0.127804H34.9753V8.15107C34.9753 8.51082 34.999 8.85163 35.0463 9.17351C35.0936 9.48592 35.2025 9.74153 35.3729 9.94033C35.5528 10.1297 35.8179 10.2243 36.1681 10.2243C36.5373 10.2243 36.8024 10.1297 36.9634 9.94033C37.1338 9.74153 37.2426 9.48592 37.29 9.17351C37.3468 8.85163 37.3752 8.51082 37.3752 8.15107V0.127804H39.4058V7.90966C39.4058 8.71436 39.3159 9.40545 39.136 9.98293C38.9562 10.5604 38.6295 11.0054 38.1562 11.3178C37.6923 11.6302 37.0296 11.7864 36.1681 11.7864Z" fill="#222222"/>
<path d="M43.5298 11.7864C42.8387 11.7864 42.2612 11.6539 41.7973 11.3888C41.3334 11.1142 40.9831 10.7166 40.7465 10.1959C40.5098 9.67526 40.3772 9.03624 40.3488 8.27888L42.1523 7.92387C42.1712 8.36881 42.2233 8.76169 42.3085 9.10251C42.4032 9.44332 42.5405 9.70839 42.7203 9.89773C42.9097 10.0776 43.1558 10.1675 43.4587 10.1675C43.7996 10.1675 44.041 10.0681 44.183 9.86933C44.325 9.66106 44.396 9.40071 44.396 9.0883C44.396 8.58655 44.2824 8.17474 44.0552 7.85286C43.828 7.53099 43.525 7.20911 43.1463 6.88723L41.6979 5.60919C41.2908 5.25891 40.9642 4.87076 40.7181 4.44475C40.4814 4.00927 40.363 3.47438 40.363 2.8401C40.363 1.93126 40.6281 1.23071 41.1583 0.738425C41.6884 0.246142 42.4126 0 43.3309 0C43.8706 0 44.3202 0.0852028 44.68 0.255609C45.0397 0.416547 45.3237 0.643756 45.532 0.937232C45.7498 1.23071 45.9107 1.56679 46.0148 1.94547C46.119 2.31468 46.1852 2.70756 46.2136 3.12411L44.4244 3.43652C44.4054 3.07677 44.3628 2.75489 44.2966 2.47088C44.2398 2.18687 44.1309 1.9644 43.97 1.80346C43.8185 1.64252 43.5913 1.56205 43.2883 1.56205C42.9759 1.56205 42.7345 1.66619 42.5641 1.87446C42.4032 2.07327 42.3227 2.32415 42.3227 2.62709C42.3227 3.01523 42.4032 3.33711 42.5641 3.59272C42.7251 3.83886 42.957 4.09447 43.2599 4.35955L44.6942 5.62339C45.1675 6.021 45.5699 6.48962 45.9012 7.02924C46.242 7.55939 46.4124 8.20314 46.4124 8.9605C46.4124 9.50959 46.2894 9.99714 46.0432 10.4231C45.8066 10.8492 45.4705 11.1852 45.035 11.4314C44.609 11.6681 44.1072 11.7864 43.5298 11.7864Z" fill="#222222"/>
<path d="M0 0.0454102H2.24218V26.2042H0V0.0454102Z" fill="#FF0002"/>
</svg>
