<svg width="100" height="46" viewBox="0 0 100 46" fill="none" xmlns="http://www.w3.org/2000/svg">
<path d="M17.3474 46.0003C15.8771 46.0003 14.7207 45.7112 13.8782 45.1329C13.0522 44.5547 12.474 43.77 12.1436 42.7788C11.8132 41.7711 11.6479 40.6147 11.6479 39.3096V32.1481C11.6479 30.7769 11.8132 29.5874 12.1436 28.5797C12.474 27.572 13.0522 26.7955 13.8782 26.2504C14.7207 25.7052 15.8771 25.4326 17.3474 25.4326C18.7351 25.4326 19.8172 25.6722 20.5936 26.1512C21.3866 26.6138 21.9483 27.2829 22.2787 28.1584C22.6091 29.034 22.7743 30.05 22.7743 31.2064V32.8915H19.2555V31.1569C19.2555 30.5952 19.2225 30.0831 19.1564 29.6205C19.1068 29.1579 18.9499 28.7945 18.6855 28.5302C18.4377 28.2493 18 28.1089 17.3722 28.1089C16.7444 28.1089 16.2819 28.2576 15.9845 28.5549C15.7037 28.8358 15.5219 29.224 15.4393 29.7196C15.3567 30.1987 15.3154 30.7439 15.3154 31.3551V40.0778C15.3154 40.8047 15.3733 41.4076 15.4889 41.8867C15.6045 42.3493 15.811 42.7045 16.1084 42.9523C16.4223 43.1836 16.8435 43.2992 17.3722 43.2992C17.9834 43.2992 18.413 43.1588 18.6608 42.8779C18.9251 42.5806 19.0903 42.1924 19.1564 41.7133C19.2225 41.2342 19.2555 40.6973 19.2555 40.1025V38.2936H22.7743V39.9043C22.7743 41.0938 22.6174 42.151 22.3035 43.0762C21.9896 43.9848 21.4362 44.7034 20.6432 45.2321C19.8667 45.7442 18.7681 46.0003 17.3474 46.0003Z" fill="white"/>
<path d="M24.5842 45.7277V25.6556H28.2517V43.2001H33.1086V45.7277H24.5842Z" fill="white"/>
<path d="M34.3699 45.7277V25.6556H37.9878V45.7277H34.3699Z" fill="white"/>
<path d="M40.3021 45.7277L40.649 25.6556H44.4404L47.2901 39.5574L50.2638 25.6556H53.9312L54.3029 45.7277H51.5771L51.2798 31.7764L48.43 45.7277H46.2246L43.3253 31.7268L43.0527 45.7277H40.3021Z" fill="white"/>
<path d="M56.5237 45.7277V25.6556H61.455C62.347 25.6556 63.1483 25.7382 63.8587 25.9034C64.5855 26.0686 65.205 26.3495 65.7172 26.746C66.2458 27.1259 66.6506 27.6463 66.9314 28.3071C67.2122 28.9679 67.3527 29.8022 67.3527 30.8099C67.3527 31.6194 67.237 32.3133 67.0057 32.8915C66.791 33.4697 66.4688 33.9323 66.0393 34.2792C65.6098 34.6096 65.0729 34.8326 64.4286 34.9482C65.2216 35.0804 65.8741 35.3613 66.3862 35.7908C66.9149 36.2038 67.3031 36.7489 67.5509 37.4263C67.8152 38.1036 67.9474 38.9214 67.9474 39.8795C67.9474 40.8377 67.8235 41.6885 67.5757 42.4319C67.3444 43.1588 66.9892 43.77 66.5101 44.2656C66.0476 44.7447 65.4611 45.1082 64.7507 45.356C64.0569 45.6038 63.2391 45.7277 62.2975 45.7277H56.5237ZM60.1912 43.1505H61.5789C62.6857 43.1505 63.4374 42.8862 63.8339 42.3576C64.2304 41.8124 64.4286 40.9781 64.4286 39.8547C64.4286 39.0453 64.3295 38.3927 64.1312 37.8971C63.9495 37.385 63.6356 37.005 63.1896 36.7572C62.7601 36.5094 62.1818 36.3855 61.455 36.3855H60.1912V43.1505ZM60.1912 33.8579H61.4302C62.1571 33.8579 62.7188 33.7505 63.1152 33.5358C63.5117 33.321 63.7843 32.9906 63.933 32.5446C64.0982 32.0985 64.1808 31.5368 64.1808 30.8595C64.1808 30.1491 64.0569 29.604 63.8091 29.224C63.5778 28.8275 63.2226 28.5632 62.7435 28.431C62.2645 28.2824 61.6532 28.208 60.9098 28.208H60.1912V33.8579Z" fill="white"/>
<path d="M69.6731 45.7277V25.6556H73.291V45.7277H69.6731Z" fill="white"/>
<path d="M75.6548 45.7277V25.6556H78.2072L83.0889 37.1041V25.6556H86.1121V45.7277H83.6836L78.7772 33.734V45.7277H75.6548Z" fill="white"/>
<path d="M93.4451 46.0003C92.1235 46.0003 91.0745 45.7194 90.298 45.1577C89.5216 44.596 88.9599 43.8031 88.613 42.7788C88.2826 41.738 88.1174 40.5156 88.1174 39.1113V32.3711C88.1174 30.9338 88.2826 29.6948 88.613 28.6541C88.9434 27.6133 89.5216 26.8203 90.3476 26.2751C91.1901 25.7135 92.3465 25.4326 93.8168 25.4326C95.188 25.4326 96.2784 25.6639 97.0878 26.1265C97.8973 26.589 98.4755 27.2581 98.8225 28.1337C99.1859 28.9927 99.3676 30.0418 99.3676 31.2808V32.3215H95.8736V31.1816C95.8736 30.5374 95.8241 29.9839 95.7249 29.5214C95.6423 29.0588 95.4606 28.7119 95.1798 28.4806C94.9154 28.2328 94.4777 28.1089 93.8664 28.1089C93.2221 28.1089 92.7513 28.2658 92.4539 28.5797C92.1731 28.8936 91.9914 29.3066 91.9088 29.8187C91.8427 30.3309 91.8096 30.8925 91.8096 31.5038V39.9043C91.8096 40.5982 91.8675 41.2011 91.9831 41.7133C92.0987 42.2254 92.3135 42.6219 92.6274 42.9027C92.9413 43.167 93.3873 43.2992 93.9655 43.2992C94.5602 43.2992 95.0146 43.1505 95.3284 42.8532C95.6423 42.5558 95.8571 42.1428 95.9727 41.6141C96.1049 41.0855 96.171 40.4577 96.171 39.7308V37.8475H94.0151V35.543H99.4667V45.7277H97.1126L96.84 43.7452C96.5757 44.4061 96.171 44.9512 95.6258 45.3807C95.0972 45.7938 94.3703 46.0003 93.4451 46.0003Z" fill="white"/>
<path d="M11.9453 20.2951V0.223023H20.3706V2.80017H15.6128V8.57398H19.3546V11.1264H15.6128V17.7675H20.4202V20.2951H11.9453Z" fill="white"/>
<path d="M21.8013 20.2951V0.223023H25.4688V17.7675H30.3257V20.2951H21.8013Z" fill="white"/>
<path d="M31.4879 20.2951V0.223023H36.4191C37.3112 0.223023 38.1125 0.305624 38.8228 0.470827C39.5497 0.636028 40.1692 0.916871 40.6813 1.31336C41.21 1.69332 41.6147 2.21371 41.8956 2.87451C42.1764 3.53532 42.3168 4.36959 42.3168 5.37732C42.3168 6.18681 42.2012 6.88066 41.9699 7.45887C41.7552 8.03707 41.433 8.49964 41.0035 8.84656C40.574 9.17697 40.0371 9.39999 39.3928 9.51563C40.1857 9.64779 40.8383 9.92863 41.3504 10.3582C41.8791 10.7712 42.2673 11.3163 42.5151 11.9937C42.7794 12.671 42.9116 13.4887 42.9116 14.4469C42.9116 15.4051 42.7877 16.2559 42.5399 16.9993C42.3086 17.7262 41.9534 18.3374 41.4743 18.833C41.0118 19.3121 40.4253 19.6755 39.7149 19.9233C39.0211 20.1712 38.2033 20.2951 37.2617 20.2951H31.4879ZM35.1553 17.7179H36.543C37.6499 17.7179 38.4016 17.4536 38.798 16.9249C39.1945 16.3798 39.3928 15.5455 39.3928 14.4221C39.3928 13.6126 39.2937 12.9601 39.0954 12.4645C38.9137 11.9524 38.5998 11.5724 38.1538 11.3246C37.7242 11.0768 37.146 10.9529 36.4191 10.9529H35.1553V17.7179ZM35.1553 8.4253H36.3944C37.1212 8.4253 37.6829 8.31792 38.0794 8.10315C38.4759 7.88839 38.7485 7.55799 38.8972 7.11194C39.0624 6.6659 39.145 6.10421 39.145 5.42688C39.145 4.71652 39.0211 4.17135 38.7733 3.79138C38.542 3.3949 38.1868 3.13058 37.7077 2.99842C37.2286 2.84973 36.6174 2.77539 35.874 2.77539H35.1553V8.4253Z" fill="white"/>
<path d="M44.5382 20.2951V0.223023H49.3455C50.7002 0.223023 51.8401 0.388225 52.7652 0.71863C53.7069 1.03251 54.4172 1.57768 54.8963 2.35413C55.3919 3.13058 55.6397 4.18787 55.6397 5.526C55.6397 6.33549 55.5654 7.06238 55.4167 7.70667C55.268 8.35096 55.012 8.90438 54.6485 9.36695C54.3016 9.81299 53.8143 10.1599 53.1865 10.4077L55.9867 20.2951H52.3192L49.8907 11.1016H48.2057V20.2951H44.5382ZM48.2057 8.797H49.3455C50.0559 8.797 50.6176 8.69788 51.0306 8.49964C51.4601 8.28488 51.7658 7.95447 51.9475 7.50843C52.1292 7.04586 52.2201 6.4594 52.2201 5.74903C52.2201 4.7413 52.0301 3.98963 51.6501 3.49402C51.2867 2.98189 50.5846 2.72583 49.5438 2.72583H48.2057V8.797Z" fill="white"/>
<path d="M63.1139 20.5676C61.6271 20.5676 60.4707 20.2951 59.6447 19.7499C58.8186 19.2047 58.2487 18.4283 57.9348 17.4205C57.6209 16.4128 57.464 15.2068 57.464 13.8026V0.223023H61.0324V14.2239C61.0324 14.8517 61.0737 15.4464 61.1563 16.0081C61.2389 16.5532 61.4288 16.9993 61.7262 17.3462C62.0401 17.6766 62.5026 17.8418 63.1139 17.8418C63.7582 17.8418 64.2208 17.6766 64.5016 17.3462C64.799 16.9993 64.9889 16.5532 65.0715 16.0081C65.1707 15.4464 65.2202 14.8517 65.2202 14.2239V0.223023H68.7638V13.8026C68.7638 15.2068 68.6069 16.4128 68.293 17.4205C67.9791 18.4283 67.4091 19.2047 66.5831 19.7499C65.7736 20.2951 64.6172 20.5676 63.1139 20.5676Z" fill="white"/>
<path d="M75.9602 20.5676C74.7542 20.5676 73.7464 20.3364 72.937 19.8738C72.1275 19.3947 71.5162 18.7009 71.1032 17.7922C70.6902 16.8836 70.4589 15.7685 70.4094 14.4469L73.5565 13.8274C73.5895 14.6038 73.6804 15.2894 73.8291 15.8842C73.9943 16.4789 74.2338 16.9415 74.5477 17.2719C74.8781 17.5857 75.3076 17.7427 75.8363 17.7427C76.431 17.7427 76.8522 17.5692 77.1001 17.2223C77.3479 16.8589 77.4718 16.4045 77.4718 15.8594C77.4718 14.9838 77.2735 14.2652 76.877 13.7035C76.4805 13.1418 75.9519 12.5801 75.2911 12.0184L72.7635 9.78821C72.0531 9.17697 71.4832 8.49964 71.0537 7.75623C70.6407 6.9963 70.4342 6.06291 70.4342 4.95606C70.4342 3.37012 70.8967 2.14763 71.8218 1.28858C72.747 0.429525 74.0108 0 75.6132 0C76.5549 0 77.3396 0.148682 77.9674 0.446045C78.5951 0.726889 79.0907 1.12337 79.4542 1.6355C79.8341 2.14763 80.115 2.73409 80.2967 3.3949C80.4784 4.03919 80.5941 4.72478 80.6436 5.45166L77.5213 5.99683C77.4883 5.36906 77.4139 4.80738 77.2983 4.31177C77.1992 3.81616 77.0092 3.42794 76.7283 3.1471C76.464 2.86625 76.0675 2.72583 75.5389 2.72583C74.9937 2.72583 74.5725 2.90755 74.2751 3.271C73.9943 3.61792 73.8538 4.05571 73.8538 4.58435C73.8538 5.26168 73.9943 5.82337 74.2751 6.26941C74.5559 6.69894 74.9607 7.14498 75.4893 7.60755L77.9921 9.81299C78.8181 10.5068 79.5203 11.3246 80.0985 12.2662C80.6932 13.1914 80.9906 14.3147 80.9906 15.6364C80.9906 16.5945 80.7758 17.4453 80.3463 18.1887C79.9333 18.9321 79.3468 19.5186 78.5869 19.9481C77.8435 20.3611 76.9679 20.5676 75.9602 20.5676Z" fill="white"/>
<path d="M0 0.0795898H3.91268V45.7275H0V0.0795898Z" fill="#FF0002"/>
</svg>
