<svg width="20" height="20" viewBox="0 0 20 20" xmlns="http://www.w3.org/2000/svg">
<path d="M18.2353 0H1.76471C0.791765 0 0 0.791765 0 1.76471V13.5294C0 14.5024 0.791765 15.2941 1.76471 15.2941H2.35294V20.12L7.86824 15.2941H18.2353C19.2082 15.2941 20 14.5024 20 13.5294V1.76471C20 0.791765 19.2082 0 18.2353 0ZM18.8235 13.5294C18.8235 13.8529 18.56 14.1176 18.2353 14.1176H7.42588L3.52941 17.5271V14.1176H1.76471C1.44 14.1176 1.17647 13.8529 1.17647 13.5294V1.76471C1.17647 1.44118 1.44 1.17647 1.76471 1.17647H18.2353C18.56 1.17647 18.8235 1.44118 18.8235 1.76471V13.5294ZM3.52941 3.52941H16.4706V4.70588H3.52941V3.52941ZM3.52941 5.88235H16.4706V7.05882H3.52941V5.88235ZM3.52941 8.23529H10.5882V9.41176H3.52941V8.23529Z"/>
</svg>
