<svg width="20" height="21" viewBox="0 0 20 21" fill="none" xmlns="http://www.w3.org/2000/svg">
<path d="M18.8157 17.2792C18.7976 17.2624 17.1178 15.6047 17.1178 13.1251V8.86489C17.1178 4.85183 13.9239 1.58806 10.0002 1.58806C6.07641 1.58806 2.88253 4.85183 2.88253 8.86489V13.1251C2.88253 15.5335 1.19241 17.2702 1.17688 17.287L0.0859375 18.3909H19.9597L18.8157 17.2792ZM2.94982 17.0968C3.52441 16.2012 4.17664 14.8139 4.17664 13.1251V8.86489C4.17664 5.56618 6.78947 2.88218 10.0002 2.88218C13.2109 2.88218 15.8237 5.56618 15.8237 8.86489V13.1251C15.8237 14.8334 16.4643 16.209 17.0376 17.0968H2.94982ZM10.6472 1.58806H9.35311V0.293945H10.6472V1.58806ZM10.6472 18.4116H11.9413C11.9413 19.4818 11.0704 20.3528 10.0002 20.3528C8.92994 20.3528 8.059 19.4818 8.059 18.4116H9.35311C9.35311 18.7688 9.64429 19.0587 10.0002 19.0587C10.3561 19.0587 10.6472 18.7688 10.6472 18.4116Z" fill="#7E869A"/>
</svg>
