<svg width="42" height="42" viewBox="0 0 42 42" fill="none" xmlns="http://www.w3.org/2000/svg">
<path d="M21 0C15.4317 0 10.0866 2.21386 6.15234 6.1507C2.21407 10.0891 0.00109092 15.4303 0 21C0 26.5673 2.21484 31.9125 6.15234 35.8493C10.0866 39.7861 15.4317 42 21 42C26.5683 42 31.9134 39.7861 35.8477 35.8493C39.7852 31.9125 42 26.5673 42 21C42 15.4327 39.7852 10.0875 35.8477 6.1507C31.9134 2.21386 26.5683 0 21 0Z" fill="url(#paint0_linear_924_24326)"/>
<path d="M9.5809 21.1795C15.7561 18.4984 19.8729 16.7307 21.9313 15.8767C27.8152 13.438 29.0364 13.0145 29.8339 13.0001C30.0093 12.9973 30.3998 13.0405 30.6546 13.2459C30.8664 13.419 30.926 13.6532 30.9558 13.8177C30.9822 13.9819 31.0186 14.3563 30.9888 14.6486C30.6712 17.9868 29.2912 26.0874 28.5896 29.8264C28.2951 31.4084 27.7093 31.9388 27.1434 31.9906C25.9124 32.1034 24.9791 31.1805 23.7878 30.4023C21.9246 29.1841 20.8723 28.4261 19.0621 27.2377C16.9706 25.8641 18.3274 25.1091 19.5188 23.8754C19.8298 23.5525 25.2505 18.6392 25.3531 18.1936C25.3663 18.1378 25.3796 17.93 25.2538 17.8205C25.1314 17.7107 24.9494 17.7483 24.817 17.778C24.6283 17.8202 21.6533 19.7822 15.8818 23.6636C15.038 24.2422 14.2735 24.5242 13.5852 24.5094C12.8306 24.4932 11.3745 24.0832 10.2924 23.7329C8.96868 23.3031 7.91301 23.0758 8.00567 22.3458C8.052 21.9658 8.57818 21.5769 9.5809 21.1795Z" fill="white"/>
<defs>
<linearGradient id="paint0_linear_924_24326" x1="21" y1="0" x2="21" y2="42" gradientUnits="userSpaceOnUse">
<stop stop-color="#2AABEE"/>
<stop offset="1" stop-color="#229ED9"/>
</linearGradient>
</defs>
</svg>
