<svg width="48" height="49" viewBox="0 0 48 49" fill="none" xmlns="http://www.w3.org/2000/svg">
<g clip-path="url(#clip0_924_24319)">
<path d="M1.02418 24.0363C1.02305 28.0692 2.08505 32.0071 4.10443 35.478L0.831055 47.337L13.0621 44.1548C16.445 45.9822 20.2353 46.9397 24.0871 46.9399H24.0972C36.8125 46.9399 47.1631 36.6733 47.1685 24.0544C47.1709 17.9396 44.7732 12.1896 40.4168 7.86367C36.0612 3.53809 30.2684 1.15465 24.0962 1.15186C11.3794 1.15186 1.02962 11.4179 1.02437 24.0363" fill="url(#paint0_linear_924_24319)"/>
<path d="M0.200625 24.0276C0.199313 28.2056 1.29937 32.2843 3.39075 35.8795L0 48.1636L12.6696 44.8674C16.1604 46.7559 20.0908 47.7517 24.0902 47.7531H24.1005C37.272 47.7531 47.9944 37.1172 48 24.0465C48.0023 17.712 45.5182 11.7554 41.0062 7.27445C36.4937 2.79408 30.4937 0.32487 24.1005 0.322266C10.9267 0.322266 0.206062 10.9567 0.200812 24.0276H0.200625ZM7.74563 35.2603L7.27256 34.5152C5.28394 31.3777 4.23431 27.752 4.23581 24.0291C4.24012 13.1649 13.1509 4.32599 24.108 4.32599C29.4143 4.32822 34.401 6.38068 38.1517 10.1046C41.9023 13.8289 43.9661 18.7796 43.9648 24.0451C43.9599 34.9092 35.049 43.7492 24.1005 43.7492H24.0926C20.5277 43.7474 17.0314 42.7974 13.9823 41.0023L13.2566 40.5753L5.73825 42.5312L7.74563 35.2601V35.2603Z" fill="url(#paint1_linear_924_24319)"/>
<path d="M18.1277 14.1167C17.6803 13.1301 17.2095 13.1102 16.784 13.0929C16.4357 13.078 16.0374 13.0791 15.6395 13.0791C15.2413 13.0791 14.5942 13.2278 14.0473 13.8203C13.4998 14.4134 11.957 15.8467 11.957 18.7619C11.957 21.6773 14.097 24.4946 14.3953 24.8903C14.694 25.2853 18.5265 31.459 24.5962 33.8341C29.6407 35.8079 30.6673 35.4153 31.7621 35.3163C32.8571 35.2177 35.2953 33.8834 35.7928 32.4998C36.2906 31.1163 36.2906 29.9305 36.1413 29.6827C35.9921 29.4358 35.5938 29.2875 34.9967 28.9913C34.3993 28.6949 31.4634 27.2614 30.9161 27.0637C30.3686 26.8661 29.9705 26.7675 29.5723 27.3608C29.174 27.9532 28.0305 29.2875 27.6819 29.6827C27.3337 30.0787 26.9852 30.128 26.3882 29.8317C25.7906 29.5344 23.8674 28.9094 21.5857 26.891C19.8105 25.3204 18.612 23.3809 18.2636 22.7876C17.9152 22.1952 18.2263 21.8741 18.5257 21.5788C18.794 21.3134 19.1231 20.8869 19.422 20.5411C19.7197 20.195 19.8191 19.9481 20.0182 19.553C20.2175 19.1574 20.1178 18.8114 19.9687 18.515C19.8191 18.2187 18.6587 15.2884 18.1277 14.1169" fill="white"/>
</g>
<defs>
<linearGradient id="paint0_linear_924_24319" x1="23.9998" y1="47.337" x2="23.9998" y2="1.15186" gradientUnits="userSpaceOnUse">
<stop stop-color="#1FAF38"/>
<stop offset="1" stop-color="#60D669"/>
</linearGradient>
<linearGradient id="paint1_linear_924_24319" x1="24" y1="48.1636" x2="24" y2="0.322266" gradientUnits="userSpaceOnUse">
<stop stop-color="#F9F9F9"/>
<stop offset="1" stop-color="white"/>
</linearGradient>
<clipPath id="clip0_924_24319">
<rect width="48" height="48" fill="white" transform="translate(0 0.322266)"/>
</clipPath>
</defs>
</svg>
