<svg width="42" height="43" viewBox="0 0 42 43" fill="none" xmlns="http://www.w3.org/2000/svg">
<circle cx="21" cy="21.6445" r="20.5" stroke="#4DD2A3"/>
<path d="M15.8612 12.715C15.4698 11.8518 15.0578 11.8343 14.6855 11.8192C14.3807 11.8062 14.0322 11.8071 13.6841 11.8071C13.3356 11.8071 12.7695 11.9372 12.2909 12.4557C11.8118 12.9747 10.4619 14.2288 10.4619 16.7796C10.4619 19.3305 12.3344 21.7957 12.5954 22.1419C12.8567 22.4875 16.2102 27.8896 21.5212 29.9677C25.9351 31.6948 26.8334 31.3513 27.7913 31.2647C28.7495 31.1784 30.8829 30.0109 31.3182 28.8002C31.7538 27.5897 31.7538 26.5521 31.6232 26.3352C31.4926 26.1192 31.1441 25.9895 30.6216 25.7303C30.0989 25.471 27.53 24.2167 27.0511 24.0436C26.572 23.8707 26.2237 23.7845 25.8753 24.3036C25.5268 24.8219 24.5262 25.9895 24.2212 26.3352C23.9165 26.6818 23.6115 26.725 23.0891 26.4656C22.5663 26.2055 20.8835 25.6587 18.887 23.8926C17.3337 22.5183 16.285 20.8212 15.9802 20.3021C15.6753 19.7837 15.9475 19.5027 16.2095 19.2444C16.4443 19.0121 16.7322 18.639 16.9937 18.3364C17.2543 18.0336 17.3412 17.8175 17.5155 17.4718C17.6899 17.1257 17.6026 16.8229 17.4721 16.5636C17.3412 16.3042 16.3258 13.7403 15.8612 12.7152" fill="#4DD2A3"/>
</svg>
