<?xml version="1.0" encoding="utf-8"?>
<svg width="20px" height="20px" viewBox="0 0 20 20" fill="none" xmlns="http://www.w3.org/2000/svg">
  <path d="M 18.34 0.007 L 1.673 0.007 C 1.231 0.007 0.807 0.182 0.495 0.495 C 0.182 0.807 0.007 1.231 0.007 1.673 L 0.007 18.34 C 0.007 18.782 0.182 19.206 0.495 19.518 C 0.807 19.831 1.231 20.007 1.673 20.007 L 18.34 20.007 C 18.782 20.007 19.206 19.831 19.518 19.518 C 19.831 19.206 20.007 18.782 20.007 18.34 L 20.007 1.673 C 20.007 1.231 19.831 0.807 19.518 0.495 C 19.206 0.182 18.782 0.007 18.34 0.007 Z M 8.34 14.59 L 4.173 10.459 L 5.498 9.173 L 8.34 11.962 L 14.514 5.84 L 15.84 7.154 L 8.34 14.59 Z" fill="#4DD2A3"/>
</svg>