<svg width="25" height="25" viewBox="0 0 25 25" fill="none" xmlns="http://www.w3.org/2000/svg">
<path d="M12.6805 0.827393C15.8811 0.827393 16.2805 0.839173 17.5363 0.898073C18.7908 0.956974 19.6449 1.1537 20.3965 1.44585C21.1739 1.74506 21.8289 2.1503 22.4839 2.80409C23.0829 3.39298 23.5464 4.10531 23.8421 4.89153C24.1331 5.64192 24.331 6.49716 24.3899 7.75174C24.4453 9.00749 24.4606 9.40684 24.4606 12.6075C24.4606 15.8081 24.4488 16.2075 24.3899 17.4633C24.331 18.7178 24.1331 19.5719 23.8421 20.3235C23.5473 21.1101 23.0836 21.8226 22.4839 22.4109C21.8948 23.0097 21.1826 23.4732 20.3965 23.7691C19.6461 24.0601 18.7908 24.258 17.5363 24.3169C16.2805 24.3723 15.8811 24.3876 12.6805 24.3876C9.47984 24.3876 9.08049 24.3758 7.82473 24.3169C6.57015 24.258 5.7161 24.0601 4.96453 23.7691C4.178 23.474 3.46554 23.0104 2.87709 22.4109C2.27796 21.8221 1.81445 21.1097 1.51885 20.3235C1.2267 19.5731 1.02997 18.7178 0.971071 17.4633C0.915705 16.2075 0.900391 15.8081 0.900391 12.6075C0.900391 9.40684 0.912171 9.00749 0.971071 7.75174C1.02997 6.49598 1.2267 5.6431 1.51885 4.89153C1.81363 4.10483 2.27725 3.3923 2.87709 2.80409C3.46571 2.20476 4.17812 1.74121 4.96453 1.44585C5.7161 1.1537 6.56898 0.956974 7.82473 0.898073C9.08049 0.842707 9.47984 0.827393 12.6805 0.827393ZM12.6805 6.71744C11.1184 6.71744 9.6202 7.338 8.5156 8.4426C7.411 9.5472 6.79044 11.0454 6.79044 12.6075C6.79044 14.1696 7.411 15.6678 8.5156 16.7724C9.6202 17.877 11.1184 18.4975 12.6805 18.4975C14.2426 18.4975 15.7408 17.877 16.8454 16.7724C17.95 15.6678 18.5705 14.1696 18.5705 12.6075C18.5705 11.0454 17.95 9.5472 16.8454 8.4426C15.7408 7.338 14.2426 6.71744 12.6805 6.71744ZM20.3376 6.42294C20.3376 6.03241 20.1824 5.65787 19.9063 5.38172C19.6301 5.10557 19.2556 4.95043 18.865 4.95043C18.4745 4.95043 18.1 5.10557 17.8238 5.38172C17.5477 5.65787 17.3925 6.03241 17.3925 6.42294C17.3925 6.81348 17.5477 7.18801 17.8238 7.46416C18.1 7.74031 18.4745 7.89545 18.865 7.89545C19.2556 7.89545 19.6301 7.74031 19.9063 7.46416C20.1824 7.18801 20.3376 6.81348 20.3376 6.42294ZM12.6805 9.07346C13.6178 9.07346 14.5167 9.4458 15.1794 10.1086C15.8422 10.7713 16.2145 11.6702 16.2145 12.6075C16.2145 13.5448 15.8422 14.4437 15.1794 15.1064C14.5167 15.7692 13.6178 16.1415 12.6805 16.1415C11.7432 16.1415 10.8443 15.7692 10.1816 15.1064C9.5188 14.4437 9.14646 13.5448 9.14646 12.6075C9.14646 11.6702 9.5188 10.7713 10.1816 10.1086C10.8443 9.4458 11.7432 9.07346 12.6805 9.07346Z" fill="white"/>
</svg>
