<svg width="43" height="30" viewBox="0 0 43 30" fill="none" xmlns="http://www.w3.org/2000/svg">
<path d="M2.11852 0H40.9425C41.9135 0 42.7075 0.794 42.7075 1.765V28.235C42.7075 29.206 41.9135 30.001 40.9425 30.001H2.11852C1.14751 30.001 0.353516 29.206 0.353516 28.235V1.764C0.353516 0.793 1.14751 0 2.11852 0Z" fill="#4361C3"/>
<g clip-path="url(#clip0_800_15208)">
<path d="M34.5778 15.0448C34.579 19.3947 31.0889 22.9216 26.7826 22.9227C22.4761 22.9238 18.9845 19.3987 18.9834 15.0488C18.9834 15.0474 18.9834 15.0462 18.9834 15.0448C18.9823 10.695 22.4723 7.1679 26.7785 7.16675C31.085 7.16559 34.5766 10.6909 34.5778 15.0408C34.5778 15.0421 34.5778 15.0434 34.5778 15.0448Z" fill="#FF9900"/>
<path d="M16.2724 7.1685C11.9915 7.19596 8.52539 10.7139 8.52539 15.0445C8.52539 19.392 12.0186 22.9204 16.3226 22.9204C18.3427 22.9204 20.184 22.1428 21.5695 20.8683C21.5695 20.8683 21.5693 20.8681 21.5689 20.868H21.5706C21.8543 20.6068 22.1189 20.325 22.3622 20.0246H20.7647C20.5514 19.7643 20.3575 19.4931 20.1834 19.2133H22.9385C23.106 18.9425 23.2577 18.6612 23.3924 18.3699H19.7285C19.6036 18.0995 19.4952 17.823 19.4026 17.5425H23.7186C23.9787 16.7574 24.1199 15.9175 24.1199 15.0444C24.1199 14.4656 24.0577 13.9012 23.9402 13.3578H19.1737C19.2328 13.0782 19.3073 12.8019 19.3962 12.5305H23.7138C23.6172 12.2416 23.5051 11.9601 23.3776 11.6872H19.7281C19.8597 11.4031 20.0089 11.1267 20.1754 10.8599H22.9285C22.7453 10.565 22.5426 10.2833 22.3234 10.0165H20.7884C21.0257 9.73436 21.287 9.46867 21.5706 9.22094C20.185 7.94627 18.3431 7.1685 16.3226 7.1685C16.3058 7.1685 16.2892 7.16841 16.2724 7.1685Z" fill="#CC0000"/>
<path d="M33.7953 19.1617C33.8377 19.1617 33.879 19.1729 33.9193 19.1947C33.9597 19.2166 33.9909 19.2481 34.0134 19.2891C34.0359 19.3297 34.0472 19.3724 34.0472 19.4167C34.0472 19.4604 34.036 19.5027 34.0139 19.5433C33.9918 19.5837 33.9606 19.6153 33.9205 19.6377C33.8808 19.6599 33.8388 19.6711 33.7952 19.6711C33.7515 19.6711 33.7096 19.6599 33.6697 19.6377C33.6296 19.6152 33.5987 19.5838 33.5761 19.5433C33.554 19.5027 33.543 19.4604 33.543 19.4167C33.543 19.3724 33.5541 19.3297 33.5768 19.2891C33.5995 19.2481 33.6308 19.2169 33.671 19.1947C33.7117 19.1729 33.7529 19.1617 33.7953 19.1617ZM33.7953 19.204C33.76 19.204 33.7255 19.2132 33.6918 19.2316C33.6583 19.25 33.6322 19.2761 33.6134 19.3105C33.5943 19.3445 33.5848 19.3797 33.5848 19.4167C33.5848 19.4533 33.5941 19.4887 33.6125 19.5223C33.6313 19.5558 33.6574 19.5821 33.6906 19.6009C33.7242 19.6197 33.7589 19.6289 33.7952 19.6289C33.8316 19.6289 33.8665 19.6197 33.8998 19.6009C33.9331 19.5821 33.959 19.5558 33.9776 19.5223C33.996 19.4887 34.0051 19.4534 34.0051 19.4167C34.0051 19.3797 33.9958 19.3444 33.9769 19.3105C33.9582 19.2761 33.9319 19.25 33.8982 19.2316C33.8649 19.2131 33.8306 19.204 33.7953 19.204ZM33.6847 19.5573V19.2833H33.7782C33.8099 19.2833 33.8329 19.2858 33.8472 19.2912C33.8614 19.2962 33.8728 19.3049 33.8813 19.3176C33.8897 19.3301 33.894 19.3434 33.894 19.3577C33.894 19.3777 33.887 19.3952 33.8727 19.4099C33.8588 19.4247 33.8399 19.4331 33.8165 19.4349C33.8261 19.4389 33.8337 19.444 33.8397 19.4495C33.8507 19.4601 33.8639 19.4782 33.8797 19.5037L33.9127 19.5573H33.8594L33.8355 19.5142C33.8166 19.4802 33.8013 19.4591 33.7896 19.4504C33.7816 19.4442 33.7699 19.441 33.7547 19.441H33.7289V19.5576H33.6849M33.7286 19.4031H33.7817C33.8071 19.4031 33.8242 19.3992 33.8335 19.3916C33.8428 19.3838 33.8474 19.3738 33.8474 19.3612C33.8474 19.353 33.8453 19.3457 33.8408 19.3395C33.8363 19.333 33.8301 19.3284 33.8221 19.3251C33.8143 19.322 33.7997 19.3202 33.7784 19.3202H33.7287V19.4031" fill="#FCB340"/>
<path d="M18.9077 17.3042L19.0115 16.5913C18.9548 16.5913 18.8713 16.6161 18.7976 16.6161C18.5086 16.6161 18.4725 16.4601 18.4952 16.3462L18.78 14.9124H19.2193L19.3098 14.1032H18.8958L18.9801 13.6129H18.114C18.0957 13.6314 17.624 16.3704 17.624 16.7041C17.624 17.1979 17.8984 17.4176 18.2854 17.4142C18.5883 17.4116 18.8244 17.3269 18.9077 17.3042Z" fill="#000066"/>
<path d="M19.1709 15.945C19.1709 17.1301 19.9452 17.4116 20.605 17.4116C21.2141 17.4116 21.5334 17.269 21.5334 17.269L21.6797 16.4601C21.6797 16.4601 21.1651 16.6715 20.7468 16.6715C19.8553 16.6715 20.0116 16 20.0116 16L21.7243 16.0053C21.7243 16.0053 21.8333 15.4621 21.8333 15.2407C21.8333 14.688 21.5353 14.0096 20.6238 14.0096C19.789 14.0098 19.1709 14.9184 19.1709 15.945ZM20.6269 14.7606C21.0955 14.7606 21.009 15.2925 21.009 15.3356H20.0873C20.0873 15.2805 20.1744 14.7606 20.6269 14.7606Z" fill="#000066"/>
<path d="M25.8871 17.3037L26.0357 16.3896C26.0357 16.3896 25.6281 16.5959 25.3487 16.5959C24.7597 16.5959 24.5234 16.1417 24.5234 15.6536C24.5234 14.6636 25.0301 14.1189 25.5942 14.1189C26.0173 14.1189 26.3567 14.3588 26.3567 14.3588L26.4923 13.4706C26.4923 13.4706 26.0915 13.1782 25.6601 13.1765C24.3626 13.1714 23.6201 14.0839 23.6201 15.6614C23.6201 16.707 24.1699 17.4186 25.1606 17.4186C25.4407 17.4186 25.8871 17.3037 25.8871 17.3037Z" fill="#000066"/>
<path d="M14.3426 14.0225C13.7733 14.0225 13.337 14.2073 13.337 14.2073L13.2165 14.9297C13.2165 14.9297 13.5767 14.7818 14.1212 14.7818C14.4304 14.7818 14.6565 14.8169 14.6565 15.0707C14.6565 15.2249 14.6289 15.2817 14.6289 15.2817C14.6289 15.2817 14.3849 15.2612 14.272 15.2612C13.4615 15.2612 12.7998 15.5707 12.7998 16.5039C12.7998 17.2393 13.2946 17.4079 13.6013 17.4079C14.1871 17.4079 14.419 17.0343 14.4324 17.0332L14.4256 17.3433C14.4256 17.3433 15.1565 17.3433 15.1566 17.3433L15.4827 15.0339C15.4827 14.0539 14.6365 14.0225 14.3426 14.0225ZM14.4692 15.8977C14.4851 16.0386 14.4331 16.7053 13.9331 16.7053C13.6752 16.7053 13.6083 16.5062 13.6083 16.3887C13.6083 16.159 13.7317 15.8835 14.34 15.8835C14.4817 15.8835 14.4453 15.8938 14.4692 15.8977Z" fill="#000066"/>
<path d="M16.2598 17.3914C16.4468 17.3914 17.5157 17.4395 17.5157 16.3253C17.5157 15.2834 16.5262 15.4894 16.5262 15.0707C16.5262 14.8625 16.6875 14.7969 16.9824 14.7969C17.0994 14.7969 17.5498 14.8345 17.5498 14.8345L17.6544 14.0941C17.6544 14.0942 17.3629 14.0282 16.8885 14.0282C16.2743 14.0282 15.6509 14.2758 15.6509 15.1231C15.6509 16.0833 16.6904 15.9869 16.6904 16.3913C16.6904 16.6613 16.4 16.6835 16.1761 16.6835C15.7888 16.6835 15.4401 16.5492 15.4389 16.5557L15.3281 17.2886C15.3483 17.2948 15.5634 17.3914 16.2598 17.3914Z" fill="#000066"/>
<path d="M32.7353 13.3512L32.5852 14.4809C32.5852 14.4809 32.2726 14.0449 31.7834 14.0449C30.863 14.0449 30.3887 14.9714 30.3887 16.0356C30.3887 16.7228 30.7269 17.3963 31.4182 17.3963C31.9155 17.3963 32.1912 17.046 32.1912 17.046L32.1547 17.3451H32.9623L33.5965 13.3573L32.7353 13.3512ZM32.3787 15.5468C32.3787 15.9898 32.1615 16.5815 31.7116 16.5815C31.4127 16.5815 31.2726 16.3281 31.2726 15.9305C31.2726 15.2803 31.5617 14.8514 31.9266 14.8514C32.2253 14.8514 32.3787 15.0585 32.3787 15.5468Z" fill="#000066"/>
<path d="M9.84852 17.3486L10.3539 14.3379L10.4282 17.3486H11.0001L12.0671 14.3379L11.5944 17.3486H12.4443L13.0988 13.3555L11.7487 13.3451L10.9456 15.7899L10.9236 13.3555H9.68633L9.02246 17.3486H9.84852Z" fill="#000066"/>
<path d="M22.6397 17.3538C22.8814 15.9658 22.9675 14.8697 23.6722 15.0967C23.7734 14.5594 24.0146 14.0922 24.1247 13.8649C24.1247 13.8649 24.0899 13.8125 23.8721 13.8125C23.5003 13.8125 23.0039 14.5746 23.0039 14.5746L23.0781 14.1034H22.3049L21.7871 17.3537H22.6397V17.3538Z" fill="#000066"/>
<path d="M27.622 14.0226C27.0525 14.0226 26.6162 14.2074 26.6162 14.2074L26.4957 14.9298C26.4957 14.9298 26.8561 14.782 27.4003 14.782C27.7096 14.782 27.9356 14.8171 27.9356 15.0708C27.9356 15.225 27.9081 15.2819 27.9081 15.2819C27.9081 15.2819 27.6642 15.2613 27.5513 15.2613C26.7407 15.2613 26.0791 15.5708 26.0791 16.504C26.0791 17.2394 26.5738 17.408 26.8805 17.408C27.4662 17.408 27.6982 17.0344 27.7115 17.0333L27.7046 17.3434H28.4358L28.7619 15.034C28.762 14.054 27.9158 14.0226 27.622 14.0226ZM27.7484 15.8978C27.7642 16.0388 27.7122 16.7054 27.2123 16.7054C26.9543 16.7054 26.8874 16.5063 26.8874 16.3888C26.8874 16.1591 27.0108 15.8836 27.6191 15.8836C27.7609 15.8836 27.7246 15.894 27.7484 15.8978Z" fill="#000066"/>
<path d="M29.6067 17.3541C29.7394 16.333 29.985 14.8994 30.639 15.097C30.7402 14.5597 30.6427 14.5611 30.4249 14.5611C30.0529 14.5611 29.9705 14.5748 29.9705 14.5748L30.0448 14.1036H29.2717L28.7539 17.354H29.6067V17.3541Z" fill="#000066"/>
<path d="M19.1237 17.0501L19.2276 16.3373C19.1708 16.3373 19.0873 16.3619 19.0137 16.3619C18.7247 16.3619 18.6928 16.2067 18.7112 16.0919L18.9447 14.6375H19.3839L19.4899 13.8491H19.0758L19.1601 13.3588H18.3299C18.3116 13.3773 17.8398 16.1164 17.8398 16.4499C17.8398 16.9437 18.1143 17.1636 18.5013 17.16C18.8044 17.1574 19.0404 17.0727 19.1237 17.0501Z" fill="white"/>
<path d="M19.3867 15.691C19.3867 16.876 20.1611 17.1576 20.8209 17.1576C21.4298 17.1576 21.6978 17.0201 21.6978 17.0201L21.844 16.2113C21.844 16.2113 21.3808 16.4174 20.9624 16.4174C20.071 16.4174 20.2271 15.7461 20.2271 15.7461H21.9143C21.9143 15.7461 22.0232 15.2027 22.0232 14.9813C22.0232 14.4287 21.7509 13.7555 20.8394 13.7555C20.0047 13.7557 19.3867 14.6642 19.3867 15.691ZM20.8426 14.5065C21.3111 14.5065 21.2247 15.0383 21.2247 15.0814H20.303C20.303 15.0264 20.3901 14.5065 20.8426 14.5065Z" fill="white"/>
<path d="M26.0993 17.0501L26.2479 16.1359C26.2479 16.1359 25.8405 16.3422 25.5609 16.3422C24.972 16.3422 24.7358 15.8879 24.7358 15.3999C24.7358 14.41 25.2426 13.8654 25.8066 13.8654C26.2296 13.8654 26.5692 14.1053 26.5692 14.1053L26.7047 13.217C26.7047 13.217 26.2012 13.0112 25.7697 13.0112C24.8113 13.0112 23.8789 13.8511 23.8789 15.4283C23.8789 16.4742 24.3824 17.1649 25.3731 17.1649C25.6532 17.165 26.0993 17.0501 26.0993 17.0501Z" fill="white"/>
<path d="M14.5595 13.7689C13.9902 13.7689 13.5538 13.9537 13.5538 13.9537L13.4334 14.6761C13.4334 14.6761 13.7936 14.5283 14.338 14.5283C14.6472 14.5283 14.8733 14.5634 14.8733 14.8172C14.8733 14.9713 14.8456 15.0282 14.8456 15.0282C14.8456 15.0282 14.6017 15.0076 14.4888 15.0076C13.7708 15.0076 13.0166 15.3171 13.0166 16.2503C13.0166 16.9855 13.5114 17.1543 13.8181 17.1543C14.4038 17.1543 14.6563 16.7703 14.6698 16.7692L14.6424 17.0896H15.3734L15.6995 14.7802C15.6995 13.8005 14.8534 13.7689 14.5595 13.7689ZM14.7374 15.6493C14.7532 15.7903 14.6498 16.4516 14.15 16.4516C13.8921 16.4516 13.8251 16.2527 13.8251 16.135C13.8251 15.9055 13.9485 15.6299 14.5569 15.6299C14.6984 15.6301 14.7135 15.6454 14.7374 15.6493Z" fill="white"/>
<path d="M16.4765 17.1375C16.6635 17.1375 17.7325 17.1855 17.7325 16.0712C17.7325 15.0295 16.743 15.2353 16.743 14.8168C16.743 14.6085 16.9043 14.5429 17.1991 14.5429C17.3161 14.5429 17.7664 14.5805 17.7664 14.5805L17.8711 13.84C17.8711 13.8401 17.5797 13.7742 17.1052 13.7742C16.491 13.7742 15.8676 14.0218 15.8676 14.8691C15.8676 15.8292 16.9071 15.7328 16.9071 16.1373C16.9071 16.4072 16.6167 16.4292 16.3929 16.4292C16.0056 16.4292 15.6569 16.295 15.6556 16.3014L15.5449 17.0343C15.565 17.0406 15.7801 17.1375 16.4765 17.1375Z" fill="white"/>
<path d="M32.9761 13.1047L32.797 14.2271C32.797 14.2271 32.4845 13.7911 31.9953 13.7911C31.2346 13.7911 30.6006 14.7175 30.6006 15.782C30.6006 16.4691 30.9388 17.1423 31.6301 17.1423C32.1274 17.1423 32.4031 16.7921 32.4031 16.7921L32.3666 17.0912H33.1741L33.8083 13.1034L32.9761 13.1047ZM32.5905 15.2932C32.5905 15.7361 32.3734 16.3277 31.9233 16.3277C31.6246 16.3277 31.4845 16.0744 31.4845 15.6768C31.4845 15.0267 31.7736 14.5977 32.1384 14.5977C32.4372 14.5976 32.5905 14.805 32.5905 15.2932Z" fill="white"/>
<path d="M10.0622 17.0946L10.5676 14.0839L10.6417 17.0946H11.2137L12.2807 14.0839L11.8081 17.0946H12.658L13.3125 13.1014H11.9983L11.1798 15.5515L11.1372 13.1014H9.92568L9.26172 17.0946H10.0622Z" fill="white"/>
<path d="M22.8525 17.0999C23.0942 15.7118 23.139 14.5847 23.7156 14.791C23.8166 14.2538 23.914 14.0459 24.0242 13.8186C24.0242 13.8186 23.9725 13.8076 23.8641 13.8076C23.4923 13.8076 23.2169 14.3207 23.2169 14.3207L23.2909 13.8495H22.5179L22 17.0999H22.8525Z" fill="white"/>
<path d="M28.0135 13.7689C27.4442 13.7689 27.0079 13.9537 27.0079 13.9537L26.8875 14.6761C26.8875 14.6761 27.2477 14.5283 27.7921 14.5283C28.1013 14.5283 28.3272 14.5634 28.3272 14.8172C28.3272 14.9713 28.2997 15.0282 28.2997 15.0282C28.2997 15.0282 28.0558 15.0076 27.9429 15.0076C27.225 15.0076 26.4707 15.3171 26.4707 16.2503C26.4707 16.9855 26.9654 17.1543 27.2721 17.1543C27.8578 17.1543 28.1103 16.7703 28.1237 16.7692L28.0965 17.0896C28.0965 17.0896 28.8273 17.0896 28.8275 17.0896L29.1536 14.7802C29.1536 13.8005 28.3074 13.7689 28.0135 13.7689ZM28.1916 15.6493C28.2075 15.7903 28.104 16.4516 27.604 16.4516C27.3461 16.4516 27.2792 16.2527 27.2792 16.135C27.2792 15.9055 27.4027 15.6299 28.011 15.6299C28.1525 15.6301 28.1675 15.6454 28.1916 15.6493Z" fill="white"/>
<path d="M29.8261 17.0999C30.0678 15.7118 30.1126 14.5847 30.6891 14.791C30.7902 14.2538 30.8877 14.0459 30.9978 13.8186C30.9978 13.8186 30.9462 13.8076 30.8377 13.8076C30.4659 13.8076 30.1905 14.3207 30.1905 14.3207L30.2645 13.8495H29.4915L28.9736 17.0999H29.8261Z" fill="white"/>
<path d="M33.7906 16.5981C33.8327 16.5981 33.8742 16.6091 33.9143 16.6313C33.9547 16.6528 33.9861 16.6845 34.0086 16.7254C34.0312 16.7661 34.0423 16.8085 34.0423 16.8529C34.0423 16.8967 34.0312 16.939 34.009 16.9795C33.9869 17.0199 33.9558 17.0517 33.9158 17.074C33.8758 17.0962 33.8339 17.1074 33.7905 17.1074C33.7466 17.1074 33.7048 17.0962 33.6647 17.074C33.6248 17.0515 33.5938 17.0199 33.5716 16.9795C33.5491 16.939 33.5381 16.8967 33.5381 16.8529C33.5381 16.8085 33.5493 16.7661 33.5719 16.7254C33.5946 16.6845 33.6261 16.653 33.6663 16.6313C33.7069 16.6091 33.7484 16.5981 33.7906 16.5981ZM33.7906 16.6401C33.7553 16.6401 33.7208 16.6493 33.6871 16.6679C33.6535 16.6861 33.6273 16.7123 33.6084 16.7466C33.5896 16.7805 33.5801 16.8159 33.5801 16.8527C33.5801 16.8895 33.5892 16.9247 33.6076 16.9583C33.6264 16.9918 33.6524 17.0181 33.686 17.0371C33.7193 17.0556 33.754 17.0649 33.7906 17.0649C33.8268 17.0649 33.8618 17.0556 33.8951 17.0371C33.9284 17.0181 33.9544 16.9918 33.9729 16.9583C33.9915 16.9245 34.0005 16.8895 34.0005 16.8527C34.0005 16.8159 33.9911 16.7805 33.9723 16.7466C33.9535 16.7123 33.9274 16.6861 33.8936 16.6679C33.8602 16.6494 33.8259 16.6401 33.7906 16.6401ZM33.6801 16.9935V16.7195H33.7735C33.8053 16.7195 33.8285 16.7221 33.8426 16.7273C33.8568 16.7322 33.868 16.741 33.8767 16.7537C33.8852 16.7663 33.8896 16.7796 33.8896 16.7938C33.8896 16.8138 33.8823 16.8313 33.8681 16.8461C33.8542 16.8608 33.8354 16.8693 33.812 16.8709C33.8214 16.875 33.8291 16.8799 33.8351 16.8854C33.8459 16.8963 33.8593 16.9144 33.8751 16.9397L33.9083 16.9934H33.8547L33.8309 16.9503C33.8119 16.9163 33.7966 16.8951 33.785 16.8865C33.777 16.8802 33.7653 16.8771 33.7499 16.8771H33.7243V16.9936L33.6801 16.9935ZM33.7239 16.8393H33.7771C33.8025 16.8393 33.8197 16.8355 33.8288 16.8278C33.8381 16.8204 33.8429 16.8101 33.8429 16.7974C33.8429 16.7893 33.8407 16.7821 33.8363 16.7759C33.8318 16.7693 33.8256 16.7646 33.8176 16.7613C33.8096 16.7582 33.7952 16.7566 33.7738 16.7566H33.724V16.8393" fill="white"/>
</g>
<defs>
<clipPath id="clip0_800_15208">
<rect width="26.4" height="16" fill="white" transform="translate(8.35352 7)"/>
</clipPath>
</defs>
</svg>
