<svg width="43" height="30" viewBox="0 0 43 30" fill="none" xmlns="http://www.w3.org/2000/svg">
<rect x="0.0585938" width="42.35" height="30" rx="2" fill="white"/>
<circle cx="14.8343" cy="17.5044" r="4.18785" fill="#355D9B"/>
<path opacity="0.1" d="M18.9784 17.4939C18.9784 19.7887 17.1181 21.6491 14.8232 21.6491C12.5283 21.6491 10.668 19.7887 10.668 17.4939C10.668 15.199 12.5283 13.3386 14.8232 13.3386C17.1181 13.3386 18.9784 15.199 18.9784 17.4939Z" fill="white"/>
<path d="M14.6785 18.193L14.8649 17.4911L15.3062 17.3299L15.416 16.9173L15.4122 16.9071L14.9778 17.0658L15.2908 15.8872H14.4031L13.9938 17.4253L13.652 17.5502L13.5391 17.9754L13.8806 17.8507L13.6393 18.7572H16.0018L16.1533 18.193H14.6785Z" fill="white"/>
<circle cx="11.6058" cy="12.1879" r="4.18785" fill="#647FE8"/>
<path opacity="0.2" d="M15.7499 12.1773C15.7499 14.4722 13.8896 16.3326 11.5947 16.3326C9.29981 16.3326 7.43945 14.4722 7.43945 12.1773C7.43945 9.88245 9.29981 8.02209 11.5947 8.02209C13.8896 8.02209 15.7499 9.88245 15.7499 12.1773Z" fill="white"/>
<path d="M11.5804 10.2493L11.5547 10.3365V12.8679L11.5804 12.8935L12.7554 12.1989L11.5804 10.2493Z" fill="white"/>
<path d="M11.5813 10.2493L10.4062 12.1989L11.5813 12.8935V11.6648V10.2493Z" fill="white"/>
<path d="M11.5809 13.2757L11.5664 13.2934V14.1951L11.5809 14.2373L12.7566 12.5815L11.5809 13.2757Z" fill="white"/>
<path d="M11.5813 14.2374V13.2758L10.4062 12.5815L11.5813 14.2374Z" fill="white"/>
<path d="M11.582 12.8934L12.757 12.1989L11.582 11.6648V12.8934Z" fill="white"/>
<path d="M10.4062 12.1989L11.5813 12.8934V11.6648L10.4062 12.1989Z" fill="white"/>
<circle cx="8.17726" cy="17.4938" r="4.17726" fill="#F59E35"/>
<path opacity="0.2" d="M12.2287 18.5044C11.6708 20.7422 9.40408 22.104 7.16598 21.5461C4.92893 20.9882 3.56701 18.7215 4.12507 16.4838C4.68273 14.2457 6.94929 12.8836 9.18674 13.4415C11.4247 13.9995 12.7865 16.2664 12.2286 18.5044H12.2287Z" fill="white"/>
<path fill-rule="evenodd" clip-rule="evenodd" d="M9.43648 17.0085C9.4928 16.6314 9.20571 16.4287 8.81314 16.2935L8.94048 15.7827L8.62947 15.7052L8.50549 16.2025C8.42384 16.1821 8.33989 16.1629 8.25647 16.1439L8.38134 15.6433L8.07059 15.5658L7.94316 16.0764C7.8755 16.061 7.80909 16.0458 7.74462 16.0297L7.74497 16.0281L7.31618 15.9211L7.23347 16.2532C7.23347 16.2532 7.46416 16.306 7.45929 16.3093C7.58522 16.3408 7.60806 16.4241 7.60417 16.4901L7.45911 17.072C7.46779 17.0743 7.47904 17.0774 7.49144 17.0824L7.45867 17.0743L7.25526 17.8894C7.23985 17.9277 7.2008 17.9851 7.11277 17.9633C7.11587 17.9678 6.88678 17.9069 6.88678 17.9069L6.73242 18.2629L7.13712 18.3637C7.18281 18.3752 7.22795 18.387 7.27259 18.3986L7.35869 18.4209L7.23002 18.9377L7.54058 19.0151L7.66811 18.504C7.75285 18.527 7.83521 18.5483 7.9158 18.5683L7.78881 19.077L8.09973 19.1545L8.2284 18.6389C8.75859 18.7392 9.15735 18.6987 9.32499 18.2193C9.46022 17.8332 9.31835 17.6105 9.0394 17.4651C9.24254 17.4181 9.39557 17.2845 9.43639 17.0085H9.43648ZM8.726 18.0046C8.63773 18.359 8.08293 18.2124 7.82931 18.1453L7.8293 18.1453C7.80659 18.1393 7.7863 18.134 7.76898 18.1297L7.93971 17.4452C7.96089 17.4505 7.98677 17.4563 8.01609 17.4629C8.27847 17.5218 8.81618 17.6424 8.72609 18.0046H8.726ZM8.0688 17.1453C8.28042 17.2017 8.7417 17.3248 8.82206 17.0029C8.90421 16.6735 8.45566 16.5743 8.2366 16.5258C8.21197 16.5204 8.19025 16.5155 8.1725 16.5111L8.0177 17.1319C8.03235 17.1355 8.04954 17.1401 8.0688 17.1453Z" fill="white"/>
<path d="M24.5616 14.7795H23.7839C23.7697 14.6789 23.7407 14.5896 23.6969 14.5114C23.6531 14.4321 23.5969 14.3646 23.5282 14.309C23.4596 14.2534 23.3803 14.2108 23.2903 14.1812C23.2015 14.1516 23.1051 14.1368 23.0009 14.1368C22.8127 14.1368 22.6487 14.1835 22.5091 14.2771C22.3694 14.3694 22.2611 14.5043 22.1841 14.6819C22.1072 14.8583 22.0687 15.0725 22.0687 15.3246C22.0687 15.5839 22.1072 15.8017 22.1841 15.978C22.2623 16.1544 22.3712 16.2876 22.5108 16.3776C22.6505 16.4675 22.8121 16.5125 22.9956 16.5125C23.0985 16.5125 23.1938 16.4989 23.2814 16.4717C23.3702 16.4444 23.4489 16.4048 23.5176 16.3527C23.5862 16.2994 23.6431 16.2349 23.688 16.1592C23.7342 16.0834 23.7662 15.997 23.7839 15.8999L24.5616 15.9035C24.5415 16.0704 24.4912 16.2314 24.4107 16.3864C24.3314 16.5403 24.2243 16.6782 24.0893 16.8001C23.9556 16.9209 23.7958 17.0168 23.6099 17.0878C23.4252 17.1576 23.2163 17.1925 22.9831 17.1925C22.6588 17.1925 22.3688 17.1191 22.1131 16.9724C21.8586 16.8256 21.6574 16.6131 21.5094 16.3349C21.3626 16.0568 21.2892 15.72 21.2892 15.3246C21.2892 14.9281 21.3638 14.5907 21.513 14.3126C21.6621 14.0344 21.8645 13.8225 22.1202 13.6769C22.3759 13.5301 22.6635 13.4567 22.9831 13.4567C23.1938 13.4567 23.3891 13.4863 23.5691 13.5455C23.7502 13.6047 23.9106 13.6911 24.0502 13.8048C24.1899 13.9172 24.3036 14.0551 24.3912 14.2185C24.4799 14.3818 24.5368 14.5688 24.5616 14.7795ZM25.0987 17.1428V14.4155H25.832V14.8914H25.8604C25.9102 14.7221 25.9936 14.5943 26.1108 14.5079C26.228 14.4203 26.3629 14.3765 26.5156 14.3765C26.5535 14.3765 26.5943 14.3789 26.6381 14.3836C26.6819 14.3883 26.7204 14.3948 26.7536 14.4031V15.0743C26.718 15.0636 26.6689 15.0542 26.6062 15.0459C26.5434 15.0376 26.486 15.0334 26.4339 15.0334C26.3227 15.0334 26.2232 15.0577 26.1357 15.1062C26.0492 15.1536 25.9806 15.2199 25.9297 15.3051C25.88 15.3903 25.8551 15.4886 25.8551 15.5999V17.1428H25.0987ZM27.6946 18.1655C27.5987 18.1655 27.5088 18.1579 27.4247 18.1425C27.3419 18.1283 27.2732 18.1099 27.2188 18.0874L27.3892 17.5228C27.478 17.55 27.5579 17.5648 27.6289 17.5672C27.7011 17.5696 27.7633 17.553 27.8153 17.5175C27.8686 17.482 27.9118 17.4216 27.945 17.3364L27.9893 17.2209L27.011 14.4155H27.8065L28.3711 16.4184H28.3995L28.9695 14.4155H29.7702L28.7102 17.4376C28.6593 17.5843 28.5901 17.7122 28.5025 17.8211C28.4161 17.9312 28.3066 18.0158 28.174 18.075C28.0414 18.1354 27.8816 18.1655 27.6946 18.1655ZM30.1573 18.1655V14.4155H30.9031V14.8736H30.9368C30.9699 14.8003 31.0179 14.7257 31.0806 14.6499C31.1445 14.573 31.2274 14.5091 31.3292 14.4582C31.4322 14.4061 31.56 14.38 31.7127 14.38C31.9116 14.38 32.0951 14.4321 32.2631 14.5363C32.4312 14.6393 32.5656 14.7949 32.6662 15.0033C32.7668 15.2104 32.8171 15.4702 32.8171 15.7827C32.8171 16.087 32.768 16.3438 32.6697 16.5533C32.5727 16.7617 32.4401 16.9197 32.272 17.0274C32.1051 17.1339 31.9181 17.1872 31.7109 17.1872C31.5642 17.1872 31.4393 17.1629 31.3363 17.1144C31.2345 17.0659 31.151 17.0049 31.0859 16.9315C31.0208 16.857 30.9711 16.7818 30.9368 16.706H30.9137V18.1655H30.1573ZM30.8977 15.7792C30.8977 15.9414 30.9202 16.0828 30.9652 16.2035C31.0102 16.3243 31.0753 16.4184 31.1605 16.4859C31.2457 16.5521 31.3493 16.5853 31.4712 16.5853C31.5943 16.5853 31.6985 16.5516 31.7837 16.4841C31.869 16.4154 31.9335 16.3207 31.9773 16.2C32.0223 16.0781 32.0447 15.9378 32.0447 15.7792C32.0447 15.6218 32.0228 15.4833 31.979 15.3637C31.9353 15.2441 31.8707 15.1506 31.7855 15.0832C31.7003 15.0157 31.5955 14.982 31.4712 14.982C31.3481 14.982 31.244 15.0145 31.1587 15.0796C31.0747 15.1447 31.0102 15.237 30.9652 15.3566C30.9202 15.4762 30.8977 15.617 30.8977 15.7792ZM34.772 14.4155V14.9837H33.1296V14.4155H34.772ZM33.5025 13.7621H34.2589V16.3048C34.2589 16.3746 34.2695 16.429 34.2908 16.4681C34.3121 16.506 34.3417 16.5326 34.3796 16.548C34.4187 16.5634 34.4637 16.5711 34.5146 16.5711C34.5501 16.5711 34.5856 16.5681 34.6211 16.5622C34.6566 16.5551 34.6838 16.5498 34.7028 16.5462L34.8217 17.1091C34.7839 17.1209 34.7306 17.1345 34.6619 17.1499C34.5933 17.1665 34.5098 17.1766 34.4116 17.1801C34.2293 17.1872 34.0695 17.1629 33.9322 17.1073C33.796 17.0517 33.6901 16.9653 33.6143 16.8481C33.5386 16.7309 33.5013 16.5829 33.5025 16.4042V13.7621ZM36.4677 17.1961C36.1919 17.1961 35.9534 17.1375 35.7521 17.0203C35.5521 16.9019 35.3976 16.7374 35.2887 16.5267C35.1798 16.3148 35.1254 16.0692 35.1254 15.7898C35.1254 15.5081 35.1798 15.2619 35.2887 15.0512C35.3976 14.8393 35.5521 14.6748 35.7521 14.5576C35.9534 14.4392 36.1919 14.38 36.4677 14.38C36.7435 14.38 36.9814 14.4392 37.1815 14.5576C37.3827 14.6748 37.5378 14.8393 37.6467 15.0512C37.7556 15.2619 37.81 15.5081 37.81 15.7898C37.81 16.0692 37.7556 16.3148 37.6467 16.5267C37.5378 16.7374 37.3827 16.9019 37.1815 17.0203C36.9814 17.1375 36.7435 17.1961 36.4677 17.1961ZM36.4712 16.6102C36.5967 16.6102 36.7015 16.5746 36.7855 16.5036C36.8696 16.4314 36.9329 16.3332 36.9755 16.2089C37.0193 16.0846 37.0412 15.9431 37.0412 15.7845C37.0412 15.6259 37.0193 15.4844 36.9755 15.3602C36.9329 15.2359 36.8696 15.1376 36.7855 15.0654C36.7015 14.9932 36.5967 14.9571 36.4712 14.9571C36.3446 14.9571 36.238 14.9932 36.1516 15.0654C36.0664 15.1376 36.0019 15.2359 35.9581 15.3602C35.9155 15.4844 35.8942 15.6259 35.8942 15.7845C35.8942 15.9431 35.9155 16.0846 35.9581 16.2089C36.0019 16.3332 36.0664 16.4314 36.1516 16.5036C36.238 16.5746 36.3446 16.6102 36.4712 16.6102Z" fill="#222222"/>
</svg>
