<svg width="43" height="30" viewBox="0 0 43 30" fill="none" xmlns="http://www.w3.org/2000/svg">
<path d="M42.353 7.94202H0V22.059H42.353V7.94202Z" fill="#F9F9F9"/>
<path d="M1.765 0.000976562H40.589C41.559 0.000976562 42.354 0.794977 42.354 1.76598V7.94298H0V1.76498C0 0.793977 0.794 0.000976562 1.765 0.000976562Z" fill="#09599E"/>
<path d="M0 22.059H42.353V28.236C42.353 29.207 41.559 30.001 40.588 30.001H1.765C0.794 30.001 0 29.207 0 28.236V22.059Z" fill="#E59703"/>
<path opacity="0.05" d="M1.765 29.957C0.794 29.957 0 29.163 0 28.192V1.765C0 0.794 0.794 0 1.765 0H40.589C41.559 0 42.354 0.794 42.354 1.765" fill="white"/>
<path d="M16.3682 18.707L17.6472 11.251H19.6762L18.3972 18.707H16.3682Z" fill="#00589F"/>
<path d="M25.7648 11.471C25.3678 11.339 24.7498 11.162 23.9558 11.162C21.9258 11.162 20.5148 12.177 20.5148 13.633C20.5148 14.692 21.5298 15.309 22.2798 15.662C23.0738 16.015 23.3388 16.28 23.3388 16.588C23.3388 17.073 22.7208 17.338 22.1038 17.338C21.3098 17.338 20.8688 17.206 20.2068 16.942L19.9418 16.765L19.6768 18.442C20.1618 18.663 21.0448 18.838 21.9268 18.838C24.0448 18.838 25.4568 17.823 25.4568 16.279C25.4568 15.441 24.9268 14.779 23.7358 14.25C23.0298 13.897 22.5888 13.676 22.5888 13.324C22.5888 13.015 22.9418 12.662 23.7358 12.662C24.3978 12.662 24.8828 12.794 25.2358 12.927L25.4118 13.015L25.7648 11.471Z" fill="#00589F"/>
<path d="M30.9712 11.2939H29.3832C28.8982 11.2939 28.5452 11.4259 28.3242 11.9119L25.3242 18.7499H27.4422C27.4422 18.7499 27.7952 17.8229 27.8832 17.6469C28.1042 17.6469 30.1772 17.6469 30.4862 17.6469C30.5302 17.9119 30.7512 18.7499 30.7512 18.7499H32.6482L30.9712 11.2939ZM28.4562 16.0589C28.6322 15.6179 29.2502 13.9859 29.2502 13.9859C29.2502 13.9859 29.4262 13.5449 29.5152 13.2799L29.6472 13.9419C29.6472 13.9419 30.0442 15.7069 30.1322 16.1029H28.4562V16.0589Z" fill="#00589F"/>
<path d="M14.6472 11.294L12.6622 16.367L12.4422 15.353C12.0892 14.162 10.8982 12.882 9.61816 12.221L11.4712 18.706H13.6332L16.8542 11.25H14.6482" fill="#00589F"/>
<path d="M10.809 11.251H7.544L7.5 11.427C10.059 12.045 11.735 13.545 12.441 15.309L11.735 11.912C11.647 11.427 11.25 11.294 10.809 11.251Z" fill="#F9A51A"/>
</svg>
