<svg width="22" height="22" viewBox="0 0 22 22" fill="none" xmlns="http://www.w3.org/2000/svg">
<path d="M11 0C4.93447 0 0 4.93447 0 11C0 17.0655 4.93447 22 11 22C17.0655 22 22 17.0655 22 11C22 4.93447 17.0655 0 11 0ZM11 20.7059C5.64753 20.7059 1.29412 16.3525 1.29412 11C1.29412 5.64753 5.64753 1.29412 11 1.29412C16.3525 1.29412 20.7059 5.64753 20.7059 11C20.7059 16.3525 16.3525 20.7059 11 20.7059ZM11.6471 16.0069H12.914V17.3011H9.086V16.0069H10.3529V10.2869H9.12871V8.99282H11.6471V16.0069ZM9.29824 6.45247C9.29824 5.74718 9.86894 5.17647 10.5742 5.17647C11.2795 5.17647 11.8489 5.74718 11.8489 6.45247C11.8489 7.15518 11.2795 7.72588 10.5742 7.72588C9.86894 7.72588 9.29824 7.15518 9.29824 6.45247Z" fill="#4DD2A3"/>
</svg>
