<?xml version="1.0" encoding="utf-8"?>
<svg width="17" height="17" viewBox="0 0 15.1 14.4" fill="none" preserveAspectRatio="xMinYMin" xmlns="http://www.w3.org/2000/svg">
  <g clip-path="url(#clip0_664_12500)" transform="matrix(1.00164, 0, 0, 1, -0.966341, -0.599312)" style="">
    <path d="M8.11271 0.857019C8.26333 0.523709 8.73667 0.52371 8.88729 0.85702L10.7684 5.01973C10.8303 5.15656 10.9597 5.2506 11.109 5.26713L15.6492 5.76985C16.0128 5.81011 16.159 6.26027 15.8886 6.50652L12.5109 9.58195C12.3999 9.68303 12.3505 9.83521 12.3809 9.98225L13.3058 14.4557C13.3798 14.8138 12.9969 15.0921 12.6791 14.9109L8.71045 12.649C8.58 12.5746 8.42 12.5746 8.28955 12.649L4.32089 14.9109C4.00312 15.0921 3.62019 14.8138 3.69424 14.4557L4.61915 9.98225C4.64955 9.83521 4.60011 9.68303 4.48908 9.58194L1.11141 6.50652C0.840963 6.26027 0.987232 5.81011 1.35077 5.76985L5.89105 5.26713C6.04029 5.2506 6.16973 5.15656 6.23157 5.01973L8.11271 0.857019Z" style="fill: rgb(217, 217, 217);"/>
  </g>
  <defs>
    <clipPath id="clip0_664_12500">
      <rect width="17" height="17" fill="white"/>
    </clipPath>
  </defs>
</svg>