<?xml version="1.0" encoding="utf-8"?>
<svg width="17" height="17" viewBox="0 0 15.1 14.4" fill="none" preserveAspectRatio="xMinYMin" xmlns="http://www.w3.org/2000/svg">
  <g clip-path="url(#clip0_664_12500)" transform="matrix(1.00164, -0.000115, 0, 1, -0.966341, -0.598336)" style="">
    <path d="M8.11271 0.857019C8.26333 0.523709 8.73667 0.52371 8.88729 0.85702L10.7684 5.01973C10.8303 5.15656 10.9597 5.2506 11.109 5.26713L15.6492 5.76985C16.0128 5.81011 16.159 6.26027 15.8886 6.50652L12.5109 9.58195C12.3999 9.68303 12.3505 9.83521 12.3809 9.98225L13.3058 14.4557C13.3798 14.8138 12.9969 15.0921 12.6791 14.9109L8.71045 12.649C8.58 12.5746 8.42 12.5746 8.28955 12.649L4.32089 14.9109C4.00312 15.0921 3.62019 14.8138 3.69424 14.4557L4.61915 9.98225C4.64955 9.83521 4.60011 9.68303 4.48908 9.58194L1.11141 6.50652C0.840963 6.26027 0.987232 5.81011 1.35077 5.76985L5.89105 5.26713C6.04029 5.2506 6.16973 5.15656 6.23157 5.01973L8.11271 0.857019Z" fill="#FFB400"/>
  </g>
  <defs>
    <clipPath id="clip0_664_12500">
      <rect width="17" height="17" fill="white"/>
    </clipPath>
  </defs>
  <path d="M 7.76 12.051 C 7.701 12.018 7.795 9.54 7.826 6.871 C 7.864 3.618 7.855 0.076 7.937 0.259 L 9.821 4.422 C 9.883 4.559 10.013 4.653 10.163 4.669 L 14.71 5.172 C 15.075 5.212 15.221 5.662 14.95 5.909 L 11.567 8.984 C 11.456 9.085 11.407 9.237 11.437 9.384 L 12.363 13.858 C 12.437 14.216 12.054 14.494 11.735 14.313 L 7.76 12.051 Z" style="fill: rgb(217, 217, 217);"/>
</svg>