<svg width="24" height="24" viewBox="0 0 24 24" fill="none" xmlns="http://www.w3.org/2000/svg">
<path d="M18.375 7.94737C18.375 8.77009 17.9852 10.0876 17.3285 11.6797C16.6833 13.2439 15.8189 14.9853 14.9484 16.6186C14.079 18.2499 13.2088 19.7635 12.5556 20.8698C12.3453 21.2259 12.1577 21.5395 12 21.801C11.8423 21.5395 11.6547 21.2259 11.4444 20.8698C10.7912 19.7635 9.92099 18.2499 9.05156 16.6186C8.18108 14.9853 7.31668 13.2439 6.67153 11.6797C6.01482 10.0876 5.625 8.77009 5.625 7.94737C5.625 4.46006 8.47473 1.625 12 1.625C15.5253 1.625 18.375 4.46006 18.375 7.94737Z" stroke="#000" stroke-width="1.25"/>
<circle cx="12" cy="8" r="2.375" stroke="#000" stroke-width="1.25"/>
</svg>
